<svg width="250" height="250" viewBox="0 0 250 250" fill="none" xmlns="http://www.w3.org/2000/svg">
<path fill-rule="evenodd" clip-rule="evenodd" d="M112.189 157.113C112.71 157.324 113.025 157.861 112.927 158.418L112.896 158.599C112.798 159.162 112.308 159.575 111.735 159.575H53.5935C53.1341 159.575 52.7161 159.311 52.5199 158.898C47.6942 148.602 45 137.381 45 124.994C45 112.607 47.818 100.881 52.8399 90.4138C65.7379 63.5444 93.2009 44.9948 124.999 45C127.632 45 130.233 45.1342 132.803 45.3819C134.439 45.5419 136.065 45.7484 137.675 46.0013C138.326 46.1045 138.759 46.729 138.646 47.3742L131.25 89.4435C131.152 90.0061 130.661 90.419 130.088 90.419H124.999H124.886C105.841 90.4809 90.419 105.934 90.419 124.994C90.419 139.564 99.4357 152.024 112.189 157.113ZM137.741 90.4201H196.398H196.403C196.863 90.4201 197.281 90.6834 197.477 91.0963C202.303 101.393 204.997 112.614 204.997 125.001C204.997 137.388 202.184 149.114 197.157 159.581C184.259 186.45 156.796 205 124.998 205C122.19 205 119.413 204.85 116.683 204.566C115.217 204.412 113.761 204.221 112.316 203.993C111.666 203.89 111.232 203.271 111.346 202.626L118.742 160.556C118.84 159.994 119.33 159.581 119.903 159.581H124.59V159.571C124.724 159.576 124.858 159.581 124.992 159.581C144.089 159.581 159.573 144.097 159.573 125.001C159.573 110.255 150.334 97.6769 137.333 92.7066C136.801 92.5001 136.481 91.9582 136.579 91.3956C136.677 90.833 137.168 90.4201 137.741 90.4201Z" fill="black"/>
</svg>
