<svg xmlns="http://www.w3.org/2000/svg" viewBox="0 0 334 334"><path d="M282.2 48.9l-.3-.3-.1-.1c-9.6-7.7-21.8-11.5-37.8-9-28.5 4.4-28.9 22.7-28.9 22.7s-.2 1.3-9.1 9.9-12.4 23.4-12.4 23.4 13.9-1 28.5-1.8 20.9 8.4 23.4 12.4 0 15.4 0 15.4 1.9-1.1 3.3-.7c1.4.4 0 3.3-2.2 7s-3.1 6.7-11.3 13.2c-5 3.9-9.6 8.3-12.6 11.4-5.9 4.6-11.5 11.3-11.5 11.3s13.9-2.6 8.8 5.9c-5.1 8.4-37.4 21.3-63.7-5.1C125 133 118.8 100.9 119.7 65c1.4-51.4 30.7-62.9 30.7-62.9s-11.2-.8-26.4 12.2c-6.3 5.3-29.2 30.2-18 91.6-4.6-4.3-9.4-10.3-13.4-26.5-11.1-44.2 2.8-66.2 2.8-66.2S61.8 46.8 74.6 87.1c7.5 23.7 19.8 43.5 19.8 43.5s-26.6-24.8-32.6-46.5c-5.7-20.9-3.5-43.8-3.5-43.8S22 90.8 57.1 141.9c13.9 20.3 29.6 34.4 29.6 34.4-3.3-1.6-22.3-8.4-42.8-31.5-20.5-23-23.4-58.5-23.4-58.5S6 132.1 21.6 156.6C39 183.8 74.3 204.1 78 206.1c-3.3-1.9-32.6-17.8-50.2-18.1C9.2 187.8 0 158 0 158s2.6 39.2 22.7 63.7 34.5 33 50.8 31.5c16.4-1.5 33.7 5.7 33.7 5.7s-21-3.4-35.2-.1c-13.3 3.1-40.3-3.5-43.7-4.3-2.6-1-5.1-2.1-7.6-3.2 29.4 49.5 83.3 82.7 145 82.7 92.9 0 168.3-75.3 168.3-168.3 0-49-19.7-90.8-51.8-116.8z" fill="#1aa2a0"/></svg>