<svg height="256pt" preserveAspectRatio="xMidYMid meet" viewBox="0 0 256 256" width="256pt" xmlns="http://www.w3.org/2000/svg"><g transform="matrix(.1 0 0 -.1 0 256)"><path d="m729 2152c-75-92-263-321-418-510-154-188-281-346-281-350s188-237 418-517l418-510h414 415l410 503c226 277 418 508 426 513 11 7 11 11 2 17-7 4-199 235-426 512l-413 505-415 2-414 2zm1330-366c217-265 396-487 398-492 1-5-177-227-395-494l-398-485-386-3-385-2-402 491c-361 440-401 493-388 507 8 10 169 206 357 437 189 231 363 444 388 473l44 52h387l386-1z"/><path d="m933 2128c-11-13-141-171-288-353-148-181-297-365-332-407l-63-76 48-59c26-32 180-220 341-418s300-366 309-373c12-9 94-12 332-12h316l31 32c16 18 177 212 357 431l326 398-67 83c-38 45-196 238-353 429l-285 347h-326c-325 0-326 0-346-22zm873-505c148-180 268-331 266-335-3-12-512-630-530-645-12-10-81-13-267-13h-251l-31 32c-16 18-139 167-272 331-171 210-240 301-233 310 45 58 490 598 510 620l26 27h257 257z"/><path d="m790 1603c-237-288-252-308-239-328 8-12 120-151 249-308l235-287 245 1 245 1 245 301c135 165 245 304 245 309s-112 146-250 313l-250 305h-237-236zm742-157 126-154-126-156-127-156h-125-125l-128 156c-115 139-127 157-115 172 8 9 65 79 127 155l112 137h127l127-1z"/><path d="m1050 1439c-63-78-114-146-112-152 2-5 53-72 115-148l112-138 112-1h111l112 136c61 74 113 141 116 149 4 8-42 72-108 154l-113 140h-115l-116 1z"/></g></svg>