<svg xmlns="http://www.w3.org/2000/svg" width="510" height="509" fill="none"><g clip-path="url(#a)"><mask id="b" width="510" height="509" x="0" y="0" maskUnits="userSpaceOnUse" style="mask-type:luminance"><path fill="#fff" d="M509.5 254.5C509.5 113.944 395.556 0 255 0 114.444 0 .5 113.944.5 254.5.5 395.056 114.444 509 255 509c140.556 0 254.5-113.944 254.5-254.5"/></mask><g mask="url(#b)"><path stroke="url(#c)" d="M-531.789-242.143 185.59 782.381"/><path stroke="url(#d)" d="M-524.41-242.143 192.969 782.381"/><path stroke="url(#e)" d="m-517.031-242.143 717.38 1024.524"/><path stroke="url(#f)" d="M-509.651-242.143 207.728 782.381"/><path stroke="url(#g)" d="M-502.272-242.143 215.107 782.381"/><path stroke="url(#h)" d="m-494.893-242.143 717.38 1024.524"/><path stroke="url(#i)" d="M-487.513-242.143 229.866 782.381"/><path stroke="url(#j)" d="M-480.134-242.143 237.245 782.381"/><path stroke="url(#k)" d="m-472.755-242.143 717.38 1024.524"/><path stroke="url(#l)" d="M-465.375-242.143 252.004 782.381"/><path stroke="url(#m)" d="M-457.996-242.143 259.383 782.381"/><path stroke="url(#n)" d="m-450.617-242.143 717.38 1024.524"/><path stroke="url(#o)" d="M-443.237-242.143 274.142 782.381"/><path stroke="url(#p)" d="M-435.858-242.143 281.521 782.381"/><path stroke="url(#q)" d="m-428.479-242.143 717.38 1024.524"/><path stroke="url(#r)" d="M-421.099-242.143 296.28 782.381"/><path stroke="url(#s)" d="M-413.72-242.143 303.659 782.381"/><path stroke="url(#t)" d="m-406.341-242.143 717.38 1024.524"/><path stroke="url(#u)" d="M-398.961-242.143 318.418 782.381"/><path stroke="url(#v)" d="M-391.582-242.143 325.797 782.381"/><path stroke="url(#w)" d="m-384.203-242.143 717.38 1024.524"/><path stroke="url(#x)" d="M-376.823-242.143 340.556 782.381"/><path stroke="url(#y)" d="M-369.444-242.143 347.935 782.381"/><path stroke="url(#z)" d="m-362.065-242.143 717.38 1024.524"/><path stroke="url(#A)" d="M-354.685-242.143 362.694 782.381"/><path stroke="url(#B)" d="M-347.306-242.143 370.073 782.381"/><path stroke="url(#C)" d="m-339.927-242.143 717.38 1024.524"/><path stroke="url(#D)" d="M-332.547-242.143 384.832 782.381"/><path stroke="url(#E)" d="M-325.168-242.143 392.211 782.381"/><path stroke="url(#F)" d="m-317.789-242.143 717.38 1024.524"/><path stroke="url(#G)" d="M-310.409-242.143 406.97 782.381"/><path stroke="url(#H)" d="M-303.03-242.143 414.349 782.381"/><path stroke="url(#I)" d="m-295.651-242.143 717.38 1024.524"/><path stroke="url(#J)" d="M-288.271-242.143 429.108 782.381"/><path stroke="url(#K)" d="M-280.892-242.143 436.487 782.381"/><path stroke="url(#L)" d="m-273.513-242.143 717.38 1024.524"/><path stroke="url(#M)" d="M-266.133-242.143 451.246 782.381"/><path stroke="url(#N)" d="M-258.754-242.143 458.625 782.381"/><path stroke="url(#O)" d="m-251.375-242.143 717.38 1024.524"/><path stroke="url(#P)" d="M-243.995-242.143 473.384 782.381"/><path stroke="url(#Q)" d="M-236.616-242.143 480.763 782.381"/><path stroke="url(#R)" d="m-229.237-242.143 717.38 1024.524"/><path stroke="url(#S)" d="M-221.857-242.143 495.522 782.381"/><path stroke="url(#T)" d="M-214.478-242.143 502.901 782.381"/><path stroke="url(#U)" d="m-207.099-242.143 717.38 1024.524"/><path stroke="url(#V)" d="M-199.719-242.143 517.66 782.381"/><path stroke="url(#W)" d="M-192.34-242.143 525.039 782.381"/><path stroke="url(#X)" d="m-184.961-242.143 717.38 1024.524"/><path stroke="url(#Y)" d="M-177.581-242.143 539.798 782.381"/><path stroke="url(#Z)" d="M-170.202-242.143 547.177 782.381"/><path stroke="url(#aa)" d="m-162.823-242.143 717.38 1024.524"/><path stroke="url(#ab)" d="M-155.443-242.143 561.936 782.381"/><path stroke="url(#ac)" d="M-148.064-242.143 569.315 782.381"/><path stroke="url(#ad)" d="m-140.685-242.143 717.38 1024.524"/><path stroke="url(#ae)" d="M-133.305-242.143 584.074 782.381"/><path stroke="url(#af)" d="M-125.926-242.143 591.453 782.381"/><path stroke="url(#ag)" d="m-118.547-242.143 717.38 1024.524"/><path stroke="url(#ah)" d="M-111.167-242.143 606.212 782.381"/><path stroke="url(#ai)" d="M-103.788-242.143 613.591 782.381"/><path stroke="url(#aj)" d="m-96.409-242.143 717.38 1024.524"/><path stroke="url(#ak)" d="M-89.03-242.143 628.35 782.381"/><path stroke="url(#al)" d="M-81.65-242.143 635.73 782.381"/><path stroke="url(#am)" d="M-74.27-242.143 643.108 782.381"/><path stroke="url(#an)" d="M-66.891-242.143 650.488 782.381"/><path stroke="url(#ao)" d="M-59.512-242.143 657.867 782.381"/><path stroke="url(#ap)" d="m-52.133-242.143 717.38 1024.524"/><path stroke="url(#aq)" d="M-44.753-242.143 672.626 782.381"/><path stroke="url(#ar)" d="M-37.374-242.143 680.005 782.381"/><path stroke="url(#as)" d="m-29.995-242.143 717.38 1024.524"/><path stroke="url(#at)" d="M-22.615-242.143 694.764 782.381"/><path stroke="url(#au)" d="M-15.236-242.143 702.143 782.381"/><path stroke="url(#av)" d="m-7.857-242.143 717.38 1024.524"/><path stroke="url(#aw)" d="M-.477-242.143 716.902 782.381"/><path stroke="url(#ax)" d="M6.902-242.143 724.281 782.381"/><path stroke="url(#ay)" d="m14.281-242.143 717.38 1024.524"/><path stroke="url(#az)" d="M21.66-242.143 739.04 782.381"/><path stroke="url(#aA)" d="M29.04-242.143 746.42 782.381"/><path stroke="url(#aB)" d="M36.42-242.143 753.798 782.381"/><path stroke="url(#aC)" d="M43.799-242.143 761.178 782.381"/><path stroke="url(#aD)" d="M51.178-242.143 768.557 782.381"/><path stroke="url(#aE)" d="m58.557-242.143 717.38 1024.524"/><path stroke="url(#aF)" d="M65.937-242.143 783.316 782.381"/><path stroke="url(#aG)" d="M73.316-242.143 790.695 782.381"/><path stroke="url(#aH)" d="m80.695-242.143 717.38 1024.524"/><path stroke="url(#aI)" d="M88.075-242.143 805.454 782.381"/><path stroke="url(#aJ)" d="M95.454-242.143 812.833 782.381"/><path stroke="url(#aK)" d="m102.833-242.143 717.38 1024.524"/><path stroke="url(#aL)" d="M110.213-242.143 827.592 782.381"/><path stroke="url(#aM)" d="M117.592-242.143 834.971 782.381"/><path stroke="url(#aN)" d="m124.971-242.143 717.38 1024.524"/><path stroke="url(#aO)" d="M132.351-242.143 849.73 782.381"/><path stroke="url(#aP)" d="M139.73-242.143 857.109 782.381"/><path stroke="url(#aQ)" d="m147.109-242.143 717.38 1024.524"/><path stroke="url(#aR)" d="M154.489-242.143 871.868 782.381"/><path stroke="url(#aS)" d="M161.868-242.143 879.247 782.381"/><path stroke="url(#aT)" d="m169.247-242.143 717.38 1024.524"/><path stroke="url(#aU)" d="M176.627-242.143 894.006 782.381"/><path stroke="url(#aV)" d="M184.006-242.143 901.385 782.381"/><path stroke="url(#aW)" d="m191.385-242.143 717.38 1024.524"/><path stroke="url(#aX)" d="M198.765-242.143 916.144 782.381"/><path stroke="url(#aY)" d="M206.144-242.143 923.523 782.381"/><path stroke="url(#aZ)" d="m213.523-242.143 717.38 1024.524"/><path stroke="url(#ba)" d="M220.903-242.143 938.282 782.381"/><path stroke="url(#bb)" d="M228.282-242.143 945.661 782.381"/><path stroke="url(#bc)" d="m235.661-242.143 717.38 1024.524"/><path stroke="url(#bd)" d="M243.041-242.143 960.42 782.381"/><path stroke="url(#be)" d="M250.42-242.143 967.799 782.381"/><path stroke="url(#bf)" d="m257.799-242.143 717.38 1024.524"/><path stroke="url(#bg)" d="M265.179-242.143 982.558 782.381"/><path stroke="url(#bh)" d="M272.558-242.143 989.937 782.381"/><path stroke="url(#bi)" d="m279.937-242.143 717.38 1024.524"/><path stroke="url(#bj)" d="M287.317-242.143 1004.7 782.381"/><path stroke="url(#bk)" d="M294.696-242.143 1012.08 782.381"/><path stroke="url(#bl)" d="M302.075-242.143 1019.45 782.381"/><path stroke="url(#bm)" d="M309.455-242.143 1026.83 782.381"/><path stroke="url(#bn)" d="M316.834-242.143 1034.21 782.381"/><path stroke="url(#bo)" d="M324.213-242.143 1041.59 782.381"/><path stroke="url(#bp)" d="M331.593-242.143 1048.97 782.381"/><path fill="#F34900" d="m341.106 308.336-22.634-32.301H191.528l-22.634 32.301h71.443v35.239H70.487v-35.239h57.47l85.023-120.398h-50.974V152.7h185.988v35.238H297.02l85.023 120.398h57.47v35.239H269.859v-35.239h71.444zM212.98 245.299h83.843l-41.921-59.318z"/></g></g><defs><linearGradient id="c" x1="66.781" x2="-381.581" y1="614.448" y2="-25.88" gradientUnits="userSpaceOnUse"><stop offset=".35" stop-color="#DAE4BE"/><stop offset=".795" stop-color="#EDD8A2" stop-opacity="0"/></linearGradient><linearGradient id="d" x1="74.16" x2="-374.202" y1="614.448" y2="-25.88" gradientUnits="userSpaceOnUse"><stop offset=".35" stop-color="#DAE4BE"/><stop offset=".795" stop-color="#EDD8A2" stop-opacity="0"/></linearGradient><linearGradient id="e" x1="81.54" x2="-366.823" y1="614.448" y2="-25.88" gradientUnits="userSpaceOnUse"><stop offset=".35" stop-color="#DAE4BE"/><stop offset=".795" stop-color="#EDD8A2" stop-opacity="0"/></linearGradient><linearGradient id="f" x1="88.919" x2="-359.443" y1="614.448" y2="-25.88" gradientUnits="userSpaceOnUse"><stop offset=".35" stop-color="#DAE4BE"/><stop offset=".795" stop-color="#EDD8A2" stop-opacity="0"/></linearGradient><linearGradient id="g" x1="96.298" x2="-352.064" y1="614.448" y2="-25.88" gradientUnits="userSpaceOnUse"><stop offset=".35" stop-color="#DAE4BE"/><stop offset=".795" stop-color="#EDD8A2" stop-opacity="0"/></linearGradient><linearGradient id="h" x1="103.678" x2="-344.685" y1="614.448" y2="-25.88" gradientUnits="userSpaceOnUse"><stop offset=".35" stop-color="#DAE4BE"/><stop offset=".795" stop-color="#EDD8A2" stop-opacity="0"/></linearGradient><linearGradient id="i" x1="111.057" x2="-337.305" y1="614.448" y2="-25.88" gradientUnits="userSpaceOnUse"><stop offset=".35" stop-color="#DAE4BE"/><stop offset=".795" stop-color="#EDD8A2" stop-opacity="0"/></linearGradient><linearGradient id="j" x1="118.436" x2="-329.926" y1="614.448" y2="-25.88" gradientUnits="userSpaceOnUse"><stop offset=".35" stop-color="#DAE4BE"/><stop offset=".795" stop-color="#EDD8A2" stop-opacity="0"/></linearGradient><linearGradient id="k" x1="125.816" x2="-322.547" y1="614.448" y2="-25.88" gradientUnits="userSpaceOnUse"><stop offset=".35" stop-color="#DAE4BE"/><stop offset=".795" stop-color="#EDD8A2" stop-opacity="0"/></linearGradient><linearGradient id="l" x1="133.195" x2="-315.167" y1="614.448" y2="-25.88" gradientUnits="userSpaceOnUse"><stop offset=".35" stop-color="#DAE4BE"/><stop offset=".795" stop-color="#EDD8A2" stop-opacity="0"/></linearGradient><linearGradient id="m" x1="140.574" x2="-307.788" y1="614.448" y2="-25.88" gradientUnits="userSpaceOnUse"><stop offset=".35" stop-color="#DAE4BE"/><stop offset=".795" stop-color="#EDD8A2" stop-opacity="0"/></linearGradient><linearGradient id="n" x1="147.954" x2="-300.409" y1="614.448" y2="-25.88" gradientUnits="userSpaceOnUse"><stop offset=".35" stop-color="#DAE4BE"/><stop offset=".795" stop-color="#EDD8A2" stop-opacity="0"/></linearGradient><linearGradient id="o" x1="155.333" x2="-293.029" y1="614.448" y2="-25.88" gradientUnits="userSpaceOnUse"><stop offset=".35" stop-color="#DAE4BE"/><stop offset=".795" stop-color="#EDD8A2" stop-opacity="0"/></linearGradient><linearGradient id="p" x1="162.712" x2="-285.65" y1="614.448" y2="-25.88" gradientUnits="userSpaceOnUse"><stop offset=".35" stop-color="#DAE4BE"/><stop offset=".795" stop-color="#EDD8A2" stop-opacity="0"/></linearGradient><linearGradient id="q" x1="170.092" x2="-278.271" y1="614.448" y2="-25.88" gradientUnits="userSpaceOnUse"><stop offset=".35" stop-color="#DAE4BE"/><stop offset=".795" stop-color="#EDD8A2" stop-opacity="0"/></linearGradient><linearGradient id="r" x1="177.471" x2="-270.891" y1="614.448" y2="-25.88" gradientUnits="userSpaceOnUse"><stop offset=".35" stop-color="#DAE4BE"/><stop offset=".795" stop-color="#EDD8A2" stop-opacity="0"/></linearGradient><linearGradient id="s" x1="184.85" x2="-263.512" y1="614.448" y2="-25.88" gradientUnits="userSpaceOnUse"><stop offset=".35" stop-color="#DAE4BE"/><stop offset=".795" stop-color="#EDD8A2" stop-opacity="0"/></linearGradient><linearGradient id="t" x1="192.23" x2="-256.133" y1="614.448" y2="-25.88" gradientUnits="userSpaceOnUse"><stop offset=".35" stop-color="#DAE4BE"/><stop offset=".795" stop-color="#EDD8A2" stop-opacity="0"/></linearGradient><linearGradient id="u" x1="199.609" x2="-248.753" y1="614.448" y2="-25.88" gradientUnits="userSpaceOnUse"><stop offset=".35" stop-color="#DAE4BE"/><stop offset=".795" stop-color="#EDD8A2" stop-opacity="0"/></linearGradient><linearGradient id="v" x1="206.988" x2="-241.374" y1="614.448" y2="-25.88" gradientUnits="userSpaceOnUse"><stop offset=".35" stop-color="#DAE4BE"/><stop offset=".795" stop-color="#EDD8A2" stop-opacity="0"/></linearGradient><linearGradient id="w" x1="214.368" x2="-233.995" y1="614.448" y2="-25.88" gradientUnits="userSpaceOnUse"><stop offset=".35" stop-color="#DAE4BE"/><stop offset=".795" stop-color="#EDD8A2" stop-opacity="0"/></linearGradient><linearGradient id="x" x1="221.747" x2="-226.615" y1="614.448" y2="-25.88" gradientUnits="userSpaceOnUse"><stop offset=".35" stop-color="#DAE4BE"/><stop offset=".795" stop-color="#EDD8A2" stop-opacity="0"/></linearGradient><linearGradient id="y" x1="229.126" x2="-219.236" y1="614.448" y2="-25.88" gradientUnits="userSpaceOnUse"><stop offset=".35" stop-color="#DAE4BE"/><stop offset=".795" stop-color="#EDD8A2" stop-opacity="0"/></linearGradient><linearGradient id="z" x1="236.506" x2="-211.857" y1="614.448" y2="-25.88" gradientUnits="userSpaceOnUse"><stop offset=".35" stop-color="#DAE4BE"/><stop offset=".795" stop-color="#EDD8A2" stop-opacity="0"/></linearGradient><linearGradient id="A" x1="243.885" x2="-204.477" y1="614.448" y2="-25.88" gradientUnits="userSpaceOnUse"><stop offset=".35" stop-color="#DAE4BE"/><stop offset=".795" stop-color="#EDD8A2" stop-opacity="0"/></linearGradient><linearGradient id="B" x1="251.264" x2="-197.098" y1="614.448" y2="-25.88" gradientUnits="userSpaceOnUse"><stop offset=".35" stop-color="#DAE4BE"/><stop offset=".795" stop-color="#EDD8A2" stop-opacity="0"/></linearGradient><linearGradient id="C" x1="258.644" x2="-189.719" y1="614.448" y2="-25.88" gradientUnits="userSpaceOnUse"><stop offset=".35" stop-color="#DAE4BE"/><stop offset=".795" stop-color="#EDD8A2" stop-opacity="0"/></linearGradient><linearGradient id="D" x1="266.023" x2="-182.339" y1="614.448" y2="-25.88" gradientUnits="userSpaceOnUse"><stop offset=".35" stop-color="#DAE4BE"/><stop offset=".795" stop-color="#EDD8A2" stop-opacity="0"/></linearGradient><linearGradient id="E" x1="273.402" x2="-174.96" y1="614.448" y2="-25.88" gradientUnits="userSpaceOnUse"><stop offset=".35" stop-color="#DAE4BE"/><stop offset=".795" stop-color="#EDD8A2" stop-opacity="0"/></linearGradient><linearGradient id="F" x1="280.782" x2="-167.581" y1="614.448" y2="-25.88" gradientUnits="userSpaceOnUse"><stop offset=".35" stop-color="#DAE4BE"/><stop offset=".795" stop-color="#EDD8A2" stop-opacity="0"/></linearGradient><linearGradient id="G" x1="288.161" x2="-160.201" y1="614.448" y2="-25.88" gradientUnits="userSpaceOnUse"><stop offset=".35" stop-color="#DAE4BE"/><stop offset=".795" stop-color="#EDD8A2" stop-opacity="0"/></linearGradient><linearGradient id="H" x1="295.54" x2="-152.822" y1="614.448" y2="-25.88" gradientUnits="userSpaceOnUse"><stop offset=".35" stop-color="#DAE4BE"/><stop offset=".795" stop-color="#EDD8A2" stop-opacity="0"/></linearGradient><linearGradient id="I" x1="302.92" x2="-145.443" y1="614.448" y2="-25.88" gradientUnits="userSpaceOnUse"><stop offset=".35" stop-color="#DAE4BE"/><stop offset=".795" stop-color="#EDD8A2" stop-opacity="0"/></linearGradient><linearGradient id="J" x1="310.299" x2="-138.063" y1="614.448" y2="-25.88" gradientUnits="userSpaceOnUse"><stop offset=".35" stop-color="#DAE4BE"/><stop offset=".795" stop-color="#EDD8A2" stop-opacity="0"/></linearGradient><linearGradient id="K" x1="317.678" x2="-130.684" y1="614.448" y2="-25.88" gradientUnits="userSpaceOnUse"><stop offset=".35" stop-color="#DAE4BE"/><stop offset=".795" stop-color="#EDD8A2" stop-opacity="0"/></linearGradient><linearGradient id="L" x1="325.058" x2="-123.305" y1="614.448" y2="-25.88" gradientUnits="userSpaceOnUse"><stop offset=".35" stop-color="#DAE4BE"/><stop offset=".795" stop-color="#EDD8A2" stop-opacity="0"/></linearGradient><linearGradient id="M" x1="332.437" x2="-115.925" y1="614.448" y2="-25.88" gradientUnits="userSpaceOnUse"><stop offset=".35" stop-color="#DAE4BE"/><stop offset=".795" stop-color="#EDD8A2" stop-opacity="0"/></linearGradient><linearGradient id="N" x1="339.816" x2="-108.546" y1="614.448" y2="-25.88" gradientUnits="userSpaceOnUse"><stop offset=".35" stop-color="#DAE4BE"/><stop offset=".795" stop-color="#EDD8A2" stop-opacity="0"/></linearGradient><linearGradient id="O" x1="347.196" x2="-101.167" y1="614.448" y2="-25.88" gradientUnits="userSpaceOnUse"><stop offset=".35" stop-color="#DAE4BE"/><stop offset=".795" stop-color="#EDD8A2" stop-opacity="0"/></linearGradient><linearGradient id="P" x1="354.575" x2="-93.787" y1="614.448" y2="-25.88" gradientUnits="userSpaceOnUse"><stop offset=".35" stop-color="#DAE4BE"/><stop offset=".795" stop-color="#EDD8A2" stop-opacity="0"/></linearGradient><linearGradient id="Q" x1="361.954" x2="-86.408" y1="614.448" y2="-25.88" gradientUnits="userSpaceOnUse"><stop offset=".35" stop-color="#DAE4BE"/><stop offset=".795" stop-color="#EDD8A2" stop-opacity="0"/></linearGradient><linearGradient id="R" x1="369.334" x2="-79.029" y1="614.448" y2="-25.88" gradientUnits="userSpaceOnUse"><stop offset=".35" stop-color="#DAE4BE"/><stop offset=".795" stop-color="#EDD8A2" stop-opacity="0"/></linearGradient><linearGradient id="S" x1="376.713" x2="-71.649" y1="614.448" y2="-25.88" gradientUnits="userSpaceOnUse"><stop offset=".35" stop-color="#DAE4BE"/><stop offset=".795" stop-color="#EDD8A2" stop-opacity="0"/></linearGradient><linearGradient id="T" x1="384.092" x2="-64.27" y1="614.448" y2="-25.88" gradientUnits="userSpaceOnUse"><stop offset=".35" stop-color="#DAE4BE"/><stop offset=".795" stop-color="#EDD8A2" stop-opacity="0"/></linearGradient><linearGradient id="U" x1="391.472" x2="-56.891" y1="614.448" y2="-25.88" gradientUnits="userSpaceOnUse"><stop offset=".35" stop-color="#DAE4BE"/><stop offset=".795" stop-color="#EDD8A2" stop-opacity="0"/></linearGradient><linearGradient id="V" x1="398.851" x2="-49.511" y1="614.448" y2="-25.88" gradientUnits="userSpaceOnUse"><stop offset=".35" stop-color="#DAE4BE"/><stop offset=".795" stop-color="#EDD8A2" stop-opacity="0"/></linearGradient><linearGradient id="W" x1="406.23" x2="-42.132" y1="614.448" y2="-25.88" gradientUnits="userSpaceOnUse"><stop offset=".35" stop-color="#DAE4BE"/><stop offset=".795" stop-color="#EDD8A2" stop-opacity="0"/></linearGradient><linearGradient id="X" x1="413.61" x2="-34.753" y1="614.448" y2="-25.88" gradientUnits="userSpaceOnUse"><stop offset=".35" stop-color="#DAE4BE"/><stop offset=".795" stop-color="#EDD8A2" stop-opacity="0"/></linearGradient><linearGradient id="Y" x1="420.989" x2="-27.373" y1="614.448" y2="-25.88" gradientUnits="userSpaceOnUse"><stop offset=".35" stop-color="#DAE4BE"/><stop offset=".795" stop-color="#EDD8A2" stop-opacity="0"/></linearGradient><linearGradient id="Z" x1="428.368" x2="-19.994" y1="614.448" y2="-25.88" gradientUnits="userSpaceOnUse"><stop offset=".35" stop-color="#DAE4BE"/><stop offset=".795" stop-color="#EDD8A2" stop-opacity="0"/></linearGradient><linearGradient id="aa" x1="435.748" x2="-12.615" y1="614.448" y2="-25.88" gradientUnits="userSpaceOnUse"><stop offset=".35" stop-color="#DAE4BE"/><stop offset=".795" stop-color="#EDD8A2" stop-opacity="0"/></linearGradient><linearGradient id="ab" x1="443.127" x2="-5.235" y1="614.448" y2="-25.88" gradientUnits="userSpaceOnUse"><stop offset=".35" stop-color="#DAE4BE"/><stop offset=".795" stop-color="#EDD8A2" stop-opacity="0"/></linearGradient><linearGradient id="ac" x1="450.506" x2="2.144" y1="614.448" y2="-25.88" gradientUnits="userSpaceOnUse"><stop offset=".35" stop-color="#DAE4BE"/><stop offset=".795" stop-color="#EDD8A2" stop-opacity="0"/></linearGradient><linearGradient id="ad" x1="457.886" x2="9.524" y1="614.448" y2="-25.88" gradientUnits="userSpaceOnUse"><stop offset=".35" stop-color="#DAE4BE"/><stop offset=".795" stop-color="#EDD8A2" stop-opacity="0"/></linearGradient><linearGradient id="ae" x1="465.265" x2="16.903" y1="614.448" y2="-25.88" gradientUnits="userSpaceOnUse"><stop offset=".35" stop-color="#DAE4BE"/><stop offset=".795" stop-color="#EDD8A2" stop-opacity="0"/></linearGradient><linearGradient id="af" x1="472.644" x2="24.282" y1="614.448" y2="-25.88" gradientUnits="userSpaceOnUse"><stop offset=".35" stop-color="#DAE4BE"/><stop offset=".795" stop-color="#EDD8A2" stop-opacity="0"/></linearGradient><linearGradient id="ag" x1="480.024" x2="31.661" y1="614.448" y2="-25.88" gradientUnits="userSpaceOnUse"><stop offset=".35" stop-color="#DAE4BE"/><stop offset=".795" stop-color="#EDD8A2" stop-opacity="0"/></linearGradient><linearGradient id="ah" x1="487.403" x2="39.041" y1="614.448" y2="-25.88" gradientUnits="userSpaceOnUse"><stop offset=".35" stop-color="#DAE4BE"/><stop offset=".795" stop-color="#EDD8A2" stop-opacity="0"/></linearGradient><linearGradient id="ai" x1="494.782" x2="46.42" y1="614.448" y2="-25.88" gradientUnits="userSpaceOnUse"><stop offset=".35" stop-color="#DAE4BE"/><stop offset=".795" stop-color="#EDD8A2" stop-opacity="0"/></linearGradient><linearGradient id="aj" x1="502.162" x2="53.8" y1="614.448" y2="-25.88" gradientUnits="userSpaceOnUse"><stop offset=".35" stop-color="#DAE4BE"/><stop offset=".795" stop-color="#EDD8A2" stop-opacity="0"/></linearGradient><linearGradient id="ak" x1="509.541" x2="61.179" y1="614.448" y2="-25.88" gradientUnits="userSpaceOnUse"><stop offset=".35" stop-color="#DAE4BE"/><stop offset=".795" stop-color="#EDD8A2" stop-opacity="0"/></linearGradient><linearGradient id="al" x1="516.92" x2="68.558" y1="614.448" y2="-25.88" gradientUnits="userSpaceOnUse"><stop offset=".35" stop-color="#DAE4BE"/><stop offset=".795" stop-color="#EDD8A2" stop-opacity="0"/></linearGradient><linearGradient id="am" x1="524.3" x2="75.938" y1="614.448" y2="-25.88" gradientUnits="userSpaceOnUse"><stop offset=".35" stop-color="#DAE4BE"/><stop offset=".795" stop-color="#EDD8A2" stop-opacity="0"/></linearGradient><linearGradient id="an" x1="531.679" x2="83.317" y1="614.448" y2="-25.88" gradientUnits="userSpaceOnUse"><stop offset=".35" stop-color="#DAE4BE"/><stop offset=".795" stop-color="#EDD8A2" stop-opacity="0"/></linearGradient><linearGradient id="ao" x1="539.058" x2="90.696" y1="614.448" y2="-25.88" gradientUnits="userSpaceOnUse"><stop offset=".35" stop-color="#DAE4BE"/><stop offset=".795" stop-color="#EDD8A2" stop-opacity="0"/></linearGradient><linearGradient id="ap" x1="546.438" x2="98.076" y1="614.448" y2="-25.88" gradientUnits="userSpaceOnUse"><stop offset=".35" stop-color="#DAE4BE"/><stop offset=".795" stop-color="#EDD8A2" stop-opacity="0"/></linearGradient><linearGradient id="aq" x1="553.817" x2="105.455" y1="614.448" y2="-25.88" gradientUnits="userSpaceOnUse"><stop offset=".35" stop-color="#DAE4BE"/><stop offset=".795" stop-color="#EDD8A2" stop-opacity="0"/></linearGradient><linearGradient id="ar" x1="561.196" x2="112.834" y1="614.448" y2="-25.88" gradientUnits="userSpaceOnUse"><stop offset=".35" stop-color="#DAE4BE"/><stop offset=".795" stop-color="#EDD8A2" stop-opacity="0"/></linearGradient><linearGradient id="as" x1="568.576" x2="120.213" y1="614.448" y2="-25.88" gradientUnits="userSpaceOnUse"><stop offset=".35" stop-color="#DAE4BE"/><stop offset=".795" stop-color="#EDD8A2" stop-opacity="0"/></linearGradient><linearGradient id="at" x1="575.955" x2="127.593" y1="614.448" y2="-25.88" gradientUnits="userSpaceOnUse"><stop offset=".35" stop-color="#DAE4BE"/><stop offset=".795" stop-color="#EDD8A2" stop-opacity="0"/></linearGradient><linearGradient id="au" x1="583.334" x2="134.972" y1="614.448" y2="-25.88" gradientUnits="userSpaceOnUse"><stop offset=".35" stop-color="#DAE4BE"/><stop offset=".795" stop-color="#EDD8A2" stop-opacity="0"/></linearGradient><linearGradient id="av" x1="590.714" x2="142.351" y1="614.448" y2="-25.88" gradientUnits="userSpaceOnUse"><stop offset=".35" stop-color="#DAE4BE"/><stop offset=".795" stop-color="#EDD8A2" stop-opacity="0"/></linearGradient><linearGradient id="aw" x1="598.093" x2="149.731" y1="614.448" y2="-25.88" gradientUnits="userSpaceOnUse"><stop offset=".35" stop-color="#DAE4BE"/><stop offset=".795" stop-color="#EDD8A2" stop-opacity="0"/></linearGradient><linearGradient id="ax" x1="605.472" x2="157.11" y1="614.448" y2="-25.88" gradientUnits="userSpaceOnUse"><stop offset=".35" stop-color="#DAE4BE"/><stop offset=".795" stop-color="#EDD8A2" stop-opacity="0"/></linearGradient><linearGradient id="ay" x1="612.852" x2="164.489" y1="614.448" y2="-25.88" gradientUnits="userSpaceOnUse"><stop offset=".35" stop-color="#DAE4BE"/><stop offset=".795" stop-color="#EDD8A2" stop-opacity="0"/></linearGradient><linearGradient id="az" x1="620.231" x2="171.869" y1="614.448" y2="-25.88" gradientUnits="userSpaceOnUse"><stop offset=".35" stop-color="#DAE4BE"/><stop offset=".795" stop-color="#EDD8A2" stop-opacity="0"/></linearGradient><linearGradient id="aA" x1="627.61" x2="179.248" y1="614.448" y2="-25.88" gradientUnits="userSpaceOnUse"><stop offset=".35" stop-color="#DAE4BE"/><stop offset=".795" stop-color="#EDD8A2" stop-opacity="0"/></linearGradient><linearGradient id="aB" x1="634.99" x2="186.627" y1="614.448" y2="-25.88" gradientUnits="userSpaceOnUse"><stop offset=".35" stop-color="#DAE4BE"/><stop offset=".795" stop-color="#EDD8A2" stop-opacity="0"/></linearGradient><linearGradient id="aC" x1="642.369" x2="194.007" y1="614.448" y2="-25.88" gradientUnits="userSpaceOnUse"><stop offset=".35" stop-color="#DAE4BE"/><stop offset=".795" stop-color="#EDD8A2" stop-opacity="0"/></linearGradient><linearGradient id="aD" x1="649.748" x2="201.386" y1="614.448" y2="-25.88" gradientUnits="userSpaceOnUse"><stop offset=".35" stop-color="#DAE4BE"/><stop offset=".795" stop-color="#EDD8A2" stop-opacity="0"/></linearGradient><linearGradient id="aE" x1="657.128" x2="208.765" y1="614.448" y2="-25.88" gradientUnits="userSpaceOnUse"><stop offset=".35" stop-color="#DAE4BE"/><stop offset=".795" stop-color="#EDD8A2" stop-opacity="0"/></linearGradient><linearGradient id="aF" x1="664.507" x2="216.145" y1="614.448" y2="-25.88" gradientUnits="userSpaceOnUse"><stop offset=".35" stop-color="#DAE4BE"/><stop offset=".795" stop-color="#EDD8A2" stop-opacity="0"/></linearGradient><linearGradient id="aG" x1="671.886" x2="223.524" y1="614.448" y2="-25.88" gradientUnits="userSpaceOnUse"><stop offset=".35" stop-color="#DAE4BE"/><stop offset=".795" stop-color="#EDD8A2" stop-opacity="0"/></linearGradient><linearGradient id="aH" x1="679.266" x2="230.903" y1="614.448" y2="-25.88" gradientUnits="userSpaceOnUse"><stop offset=".35" stop-color="#DAE4BE"/><stop offset=".795" stop-color="#EDD8A2" stop-opacity="0"/></linearGradient><linearGradient id="aI" x1="686.645" x2="238.283" y1="614.448" y2="-25.88" gradientUnits="userSpaceOnUse"><stop offset=".35" stop-color="#DAE4BE"/><stop offset=".795" stop-color="#EDD8A2" stop-opacity="0"/></linearGradient><linearGradient id="aJ" x1="694.024" x2="245.662" y1="614.448" y2="-25.88" gradientUnits="userSpaceOnUse"><stop offset=".35" stop-color="#DAE4BE"/><stop offset=".795" stop-color="#EDD8A2" stop-opacity="0"/></linearGradient><linearGradient id="aK" x1="701.404" x2="253.041" y1="614.448" y2="-25.88" gradientUnits="userSpaceOnUse"><stop offset=".35" stop-color="#DAE4BE"/><stop offset=".795" stop-color="#EDD8A2" stop-opacity="0"/></linearGradient><linearGradient id="aL" x1="708.783" x2="260.421" y1="614.448" y2="-25.88" gradientUnits="userSpaceOnUse"><stop offset=".35" stop-color="#DAE4BE"/><stop offset=".795" stop-color="#EDD8A2" stop-opacity="0"/></linearGradient><linearGradient id="aM" x1="716.162" x2="267.8" y1="614.448" y2="-25.88" gradientUnits="userSpaceOnUse"><stop offset=".35" stop-color="#DAE4BE"/><stop offset=".795" stop-color="#EDD8A2" stop-opacity="0"/></linearGradient><linearGradient id="aN" x1="723.542" x2="275.179" y1="614.448" y2="-25.88" gradientUnits="userSpaceOnUse"><stop offset=".35" stop-color="#DAE4BE"/><stop offset=".795" stop-color="#EDD8A2" stop-opacity="0"/></linearGradient><linearGradient id="aO" x1="730.921" x2="282.559" y1="614.448" y2="-25.88" gradientUnits="userSpaceOnUse"><stop offset=".35" stop-color="#DAE4BE"/><stop offset=".795" stop-color="#EDD8A2" stop-opacity="0"/></linearGradient><linearGradient id="aP" x1="738.3" x2="289.938" y1="614.448" y2="-25.88" gradientUnits="userSpaceOnUse"><stop offset=".35" stop-color="#DAE4BE"/><stop offset=".795" stop-color="#EDD8A2" stop-opacity="0"/></linearGradient><linearGradient id="aQ" x1="745.68" x2="297.317" y1="614.448" y2="-25.88" gradientUnits="userSpaceOnUse"><stop offset=".35" stop-color="#DAE4BE"/><stop offset=".795" stop-color="#EDD8A2" stop-opacity="0"/></linearGradient><linearGradient id="aR" x1="753.059" x2="304.697" y1="614.448" y2="-25.88" gradientUnits="userSpaceOnUse"><stop offset=".35" stop-color="#DAE4BE"/><stop offset=".795" stop-color="#EDD8A2" stop-opacity="0"/></linearGradient><linearGradient id="aS" x1="760.438" x2="312.076" y1="614.448" y2="-25.88" gradientUnits="userSpaceOnUse"><stop offset=".35" stop-color="#DAE4BE"/><stop offset=".795" stop-color="#EDD8A2" stop-opacity="0"/></linearGradient><linearGradient id="aT" x1="767.818" x2="319.455" y1="614.448" y2="-25.88" gradientUnits="userSpaceOnUse"><stop offset=".35" stop-color="#DAE4BE"/><stop offset=".795" stop-color="#EDD8A2" stop-opacity="0"/></linearGradient><linearGradient id="aU" x1="775.197" x2="326.835" y1="614.448" y2="-25.88" gradientUnits="userSpaceOnUse"><stop offset=".35" stop-color="#DAE4BE"/><stop offset=".795" stop-color="#EDD8A2" stop-opacity="0"/></linearGradient><linearGradient id="aV" x1="782.576" x2="334.214" y1="614.448" y2="-25.88" gradientUnits="userSpaceOnUse"><stop offset=".35" stop-color="#DAE4BE"/><stop offset=".795" stop-color="#EDD8A2" stop-opacity="0"/></linearGradient><linearGradient id="aW" x1="789.956" x2="341.593" y1="614.448" y2="-25.88" gradientUnits="userSpaceOnUse"><stop offset=".35" stop-color="#DAE4BE"/><stop offset=".795" stop-color="#EDD8A2" stop-opacity="0"/></linearGradient><linearGradient id="aX" x1="797.335" x2="348.973" y1="614.448" y2="-25.88" gradientUnits="userSpaceOnUse"><stop offset=".35" stop-color="#DAE4BE"/><stop offset=".795" stop-color="#EDD8A2" stop-opacity="0"/></linearGradient><linearGradient id="aY" x1="804.714" x2="356.352" y1="614.448" y2="-25.88" gradientUnits="userSpaceOnUse"><stop offset=".35" stop-color="#DAE4BE"/><stop offset=".795" stop-color="#EDD8A2" stop-opacity="0"/></linearGradient><linearGradient id="aZ" x1="812.094" x2="363.731" y1="614.448" y2="-25.88" gradientUnits="userSpaceOnUse"><stop offset=".35" stop-color="#DAE4BE"/><stop offset=".795" stop-color="#EDD8A2" stop-opacity="0"/></linearGradient><linearGradient id="ba" x1="819.473" x2="371.111" y1="614.448" y2="-25.88" gradientUnits="userSpaceOnUse"><stop offset=".35" stop-color="#DAE4BE"/><stop offset=".795" stop-color="#EDD8A2" stop-opacity="0"/></linearGradient><linearGradient id="bb" x1="826.852" x2="378.49" y1="614.448" y2="-25.88" gradientUnits="userSpaceOnUse"><stop offset=".35" stop-color="#DAE4BE"/><stop offset=".795" stop-color="#EDD8A2" stop-opacity="0"/></linearGradient><linearGradient id="bc" x1="834.232" x2="385.869" y1="614.448" y2="-25.88" gradientUnits="userSpaceOnUse"><stop offset=".35" stop-color="#DAE4BE"/><stop offset=".795" stop-color="#EDD8A2" stop-opacity="0"/></linearGradient><linearGradient id="bd" x1="841.611" x2="393.249" y1="614.448" y2="-25.88" gradientUnits="userSpaceOnUse"><stop offset=".35" stop-color="#DAE4BE"/><stop offset=".795" stop-color="#EDD8A2" stop-opacity="0"/></linearGradient><linearGradient id="be" x1="848.99" x2="400.628" y1="614.448" y2="-25.88" gradientUnits="userSpaceOnUse"><stop offset=".35" stop-color="#DAE4BE"/><stop offset=".795" stop-color="#EDD8A2" stop-opacity="0"/></linearGradient><linearGradient id="bf" x1="856.37" x2="408.007" y1="614.448" y2="-25.88" gradientUnits="userSpaceOnUse"><stop offset=".35" stop-color="#DAE4BE"/><stop offset=".795" stop-color="#EDD8A2" stop-opacity="0"/></linearGradient><linearGradient id="bg" x1="863.749" x2="415.387" y1="614.448" y2="-25.88" gradientUnits="userSpaceOnUse"><stop offset=".35" stop-color="#DAE4BE"/><stop offset=".795" stop-color="#EDD8A2" stop-opacity="0"/></linearGradient><linearGradient id="bh" x1="871.128" x2="422.766" y1="614.448" y2="-25.88" gradientUnits="userSpaceOnUse"><stop offset=".35" stop-color="#DAE4BE"/><stop offset=".795" stop-color="#EDD8A2" stop-opacity="0"/></linearGradient><linearGradient id="bi" x1="878.508" x2="430.145" y1="614.448" y2="-25.88" gradientUnits="userSpaceOnUse"><stop offset=".35" stop-color="#DAE4BE"/><stop offset=".795" stop-color="#EDD8A2" stop-opacity="0"/></linearGradient><linearGradient id="bj" x1="885.887" x2="437.525" y1="614.448" y2="-25.88" gradientUnits="userSpaceOnUse"><stop offset=".35" stop-color="#DAE4BE"/><stop offset=".795" stop-color="#EDD8A2" stop-opacity="0"/></linearGradient><linearGradient id="bk" x1="893.266" x2="444.904" y1="614.448" y2="-25.88" gradientUnits="userSpaceOnUse"><stop offset=".35" stop-color="#DAE4BE"/><stop offset=".795" stop-color="#EDD8A2" stop-opacity="0"/></linearGradient><linearGradient id="bl" x1="900.646" x2="452.283" y1="614.448" y2="-25.88" gradientUnits="userSpaceOnUse"><stop offset=".35" stop-color="#DAE4BE"/><stop offset=".795" stop-color="#EDD8A2" stop-opacity="0"/></linearGradient><linearGradient id="bm" x1="908.025" x2="459.663" y1="614.448" y2="-25.88" gradientUnits="userSpaceOnUse"><stop offset=".35" stop-color="#DAE4BE"/><stop offset=".795" stop-color="#EDD8A2" stop-opacity="0"/></linearGradient><linearGradient id="bn" x1="915.404" x2="467.042" y1="614.448" y2="-25.88" gradientUnits="userSpaceOnUse"><stop offset=".35" stop-color="#DAE4BE"/><stop offset=".795" stop-color="#EDD8A2" stop-opacity="0"/></linearGradient><linearGradient id="bo" x1="922.784" x2="474.421" y1="614.448" y2="-25.88" gradientUnits="userSpaceOnUse"><stop offset=".35" stop-color="#DAE4BE"/><stop offset=".795" stop-color="#EDD8A2" stop-opacity="0"/></linearGradient><linearGradient id="bp" x1="930.163" x2="481.801" y1="614.448" y2="-25.88" gradientUnits="userSpaceOnUse"><stop offset=".35" stop-color="#DAE4BE"/><stop offset=".795" stop-color="#EDD8A2" stop-opacity="0"/></linearGradient><clipPath id="a"><path fill="#fff" d="M0 0h510v509H0z"/></clipPath></defs></svg>