<svg width="512" height="512" viewBox="0 0 512 512" xmlns="http://www.w3.org/2000/svg">
  <defs>
    <mask id="bMask">
      <rect x="0" y="0" width="512" height="512" fill="black"/>
      <path d="M 80,52 L 360,52 L 360,92 L 104,92 L 104,236 L 374,236 L 374,276 L 104,276 L 104,420 L 360,420 L 360,460 L 80,460 A 16,16 0 0 1 64,444 L 64,68 A 16,16 0 0 1 80,52 Z" fill="white"/>
      <circle cx="360" cy="161" r="109" fill="white"/>
      <circle cx="360" cy="161" r="69" fill="black"/>
      <circle cx="360" cy="351" r="109" fill="white"/>
      <circle cx="360" cy="351" r="69" fill="black"/>
    </mask>
  </defs>
  <rect x="0" y="0" width="512" height="512" rx="100" fill="#005046"/>
  <rect x="0" y="0" width="512" height="512" fill="#9FF2E1" mask="url(#bMask)"/>
</svg>
