<?xml version="1.0" encoding="UTF-8" standalone="no"?>
<svg height="378" width="357" xmlns="http://www.w3.org/2000/svg">
<g stroke-width="0">
<path d="m189.03 10.062c-98.844 0-178.97 80.124-178.97 178.97 0.002 98.85 80.126 178.97 178.97 178.97 62.393 0 117.31-31.937 149.34-80.344h-70.875c-21.53 17.15-48.8 27.4-78.47 27.4-69.6 0-126.03-56.42-126.03-126.03 0-69.6 56.43-126.03 126.03-126.03 37.279 0 70.769 16.21 93.844 41.938h64.188c-30.1-56.455-89.58-94.878-158.03-94.878z"/>
<path d="m159.47 78.46c-22.68 7.572-34.97 14.167-49.85 29.02v160.19c16.71 15.247 28.655 22.504 49.844 29.744v-58.539h73.172v34.39h50.359v-34.39h24.906v-49.844h-24.906v-20.75h65.403v-49.844h-115.76v70.594h-73.172z"/>
</g>
</svg>
