<svg xmlns="http://www.w3.org/2000/svg" width="655" height="653" fill="none"><path fill="#D0ED27" d="M601.256 515.052h-29.358l-5.371-1.924c-14.759-5.318-145.408-53.285-191.972-100.397-50.339-50.907-50.339-121.99 0-172.87 46.564-47.085 177.239-95.079 191.972-100.37l5.371-1.924h29.358c-15.53-22.501-33.772-42.944-54.222-60.928l-2.606.935c-37.07 13.361-162.188 61.195-216.303 115.923-76.108 76.962-76.108 188.663 0 265.624 54.115 54.729 179.233 102.562 216.303 115.924l2.606.935c20.45-17.985 38.692-38.427 54.222-60.928Z"/><path fill="#D0ED27" d="M281.694 505.461c-102.673-103.818-102.673-254.508 0-358.326 48.452-49.01 134.212-89.708 199.178-115.71A325.27 325.27 0 0 0 388.543 0C331.13 27.39 274.381 61.222 235.264 100.771c-127.166 128.59-127.166 322.491 0 451.08 39.117 39.55 95.866 73.381 153.279 100.745a326.353 326.353 0 0 0 92.329-31.399c-64.939-26.001-150.7-66.727-199.178-115.736Z"/><path fill="#D0ED27" d="M188.86 598.187c-153.306-154.992-153.306-388.789 0-543.808 17.418-17.637 37.708-34.098 59.594-49.49C105.652 41.392 0 171.425 0 326.31c0 154.858 105.652 284.918 248.454 321.394-21.886-15.392-42.176-31.88-59.594-49.517Zm232.127-311.962c-25.183 25.467-25.183 54.675 0 80.142 26.327 26.642 111.236 64.028 162.374 82.894h53.105c8.35-20.951 14.599-42.97 18.535-65.765h-59.833l-5.744-2.245c-19.599-7.696-39.836-16.381-58.53-25.146l-56.004-26.241c-3.005-1.417-3.005-5.692 0-7.109l55.977-26.268a982.638 982.638 0 0 1 58.77-25.28l5.451-2.138h59.86a331.677 331.677 0 0 0-18.535-65.764h-53.105c-51.085 18.893-135.994 56.278-162.321 82.92Z"/></svg>