<?xml version="1.0" encoding="UTF-8"?><svg id="Calque_2" xmlns="http://www.w3.org/2000/svg" viewBox="0 0 964 964"><defs><style>.cls-1{fill:#f2f2f2;}.cls-2{stroke-width:20px;}.cls-2,.cls-3{fill:none;stroke:#000;stroke-miterlimit:10;}.cls-3{stroke-dasharray:15 15;stroke-width:30px;}</style></defs><circle class="cls-1" cx="482" cy="482.33" r="467"/><circle class="cls-2" cx="482" cy="482.33" r="467"/><circle cx="482" cy="482.33" r="405.84"/><circle class="cls-3" cx="482" cy="482.33" r="405.84"/><path class="cls-1" d="M583.41,183.37c-1.43.19-4.96.48-7.91.76s-5.82.57-6.29.76-2.1.38-3.43.57c-2.38.38-7.34,1.43-15.06,3.34-3.81.95-11.63,3.43-14.68,4.67-.76.29-2.67,1.05-4.19,1.62s-3.43,1.43-4.39,1.81-2.1.95-2.76,1.14c-3.05.95-16.02,8.2-21.45,12.01-1.24.86-2.29,1.53-2.38,1.53-.76,0-12.87,9.44-18.21,14.21-8.29,7.34-29.08,27.74-41.47,40.71-3.43,3.53-7.25,7.53-8.48,8.87-1.33,1.33-2.86,3.05-3.62,3.81s-1.91,2.1-2.76,3.05c-.86.86-2.48,2.57-3.62,3.72s-3.24,3.43-4.77,5.05c-1.53,1.62-4.1,4.39-5.91,6.29-1.72,1.91-4.1,4.39-5.15,5.62-1.14,1.14-2.76,2.96-3.62,3.91s-3.34,3.62-5.43,5.91c-3.53,3.81-6.2,6.67-10.58,11.63-.86.95-2.38,2.67-3.43,3.72-2.57,2.76-7.34,8.01-8.87,9.72-.76.76-1.33,1.53-1.43,1.62s-1.14,1.33-2.48,2.76c-1.24,1.43-3.15,3.53-4.39,4.77-1.14,1.14-2.48,2.67-3.05,3.34-1.72,2-8.58,9.72-11.15,12.39-3.15,3.24-4.58,4.86-7.25,7.91-1.14,1.33-2.29,2.67-2.57,2.86s-2.86,3.05-5.72,6.2c-2.96,3.15-5.53,5.91-5.72,6.2-.19.19-1.05,1.14-1.81,2s-2.76,3.05-4.48,4.86c-1.62,1.81-3.91,4.19-4.96,5.34s-3.81,4.19-6.2,6.96c-2.38,2.67-5.82,6.48-7.63,8.29-8.29,8.68-11.92,12.49-15.44,16.49-3.05,3.43-5.43,6.01-10.2,10.96-4.86,4.96-6.67,6.96-9.82,10.49-1.43,1.62-2.96,3.24-3.43,3.72s-2,2.1-3.34,3.62c-3.72,4.1-7.44,8.29-10.39,11.34-1.05,1.05-2.96,3.24-4.29,4.77s-2.48,2.86-2.57,2.86-1.53,1.43-3.05,3.15-2.96,3.34-3.15,3.53c-5.24,5.72-11.63,14.11-15.35,20.12-1.14,1.91-2.38,3.91-2.76,4.48-1.62,2.57-7.91,14.49-7.91,15.06s-.76,1.62-1.62,3.43c-.86,1.91-1.62,3.43-1.62,3.53,0,.19-1.72,4.39-2.48,5.91-.19.48-1.33,3.81-2.57,7.44-2.1,6.29-3.53,11.54-5.15,18.97-.48,1.91-1.05,4.58-1.33,5.91s-.76,4.29-1.05,6.48-.67,5.34-.86,6.86c-.38,2.76-.67,5.91-1.33,15.06-.48,7.25,0,17.45,1.72,29.74,1.91,14.59,5.53,28.31,10.68,40.71.76,2,1.72,4.29,2,5.05.95,2.38,8.1,16.59,10.49,20.78,1.24,2.1,3.05,5.15,4.1,6.77s2.38,3.62,2.96,4.48c.57.86,1.14,1.72,1.33,1.91s.76,1.05,1.33,1.81c.57.86,1.81,2.48,2.67,3.72,2.19,2.76,4.86,6.2,5.05,6.39s1.14,1.33,2.48,2.86c5.53,6.67,18.78,19.16,26.69,25.26,1.62,1.24,2.38,1.81,6.2,4.48,1.91,1.33,8.01,5.24,10.58,6.67.95.57,2.19,1.24,2.76,1.62,1.53.86,10.77,5.53,12.77,6.39,6.39,2.86,20.4,7.63,26.88,9.15,4.86,1.14,12.39,2.76,13.82,2.86s3.34.38,5.43.76,6.29.67,9.15.86,6.1.38,7.05.48c4.29.38,9.25.48,13.63.19,9.82-.57,17.54-1.24,18.21-1.43.38-.19,1.91-.38,3.43-.57,8.2-1.05,17.45-3.24,25.84-6.2,2-.67,4.29-1.43,5.05-1.72,2.1-.67,4.77-1.62,5.43-1.91.29-.19,1.91-.76,3.43-1.33,1.62-.67,4.1-1.72,5.62-2.48,1.53-.67,3.34-1.53,4-1.91.76-.38,1.81-.95,2.48-1.33s1.91-1.14,2.86-1.62c4-2.19,4.48-2.48,4.48-2.67s.19-.19.38-.19,1.24-.57,2.38-1.33,2.96-1.91,4.19-2.57c3.15-1.91,9.72-6.77,11.82-8.68.29-.19,1.24-1.05,2.19-1.91,6.2-5.24,23.26-21.83,31.94-30.89,1.24-1.33,4.39-4.67,6.86-7.34,2.57-2.67,5.82-6.2,7.34-7.72,4.1-4.29,7.72-8.1,9.63-10.2.95-1.05,3.34-3.72,5.43-5.91s5.91-6.39,8.58-9.15,5.82-6.2,6.96-7.34c2.19-2.29,5.43-5.82,8.58-9.15,2-2.19,6.01-6.58,7.05-7.82.29-.38,1.33-1.43,2.19-2.38s2.29-2.48,3.15-3.43,2.29-2.48,3.15-3.43c.86-.95,2.29-2.48,3.15-3.43s2.86-3.15,4.39-4.77,3.62-4.1,4.77-5.34,2.29-2.57,2.57-2.86c.57-.67,3.72-4.1,8.77-9.63,1.62-1.81,4-4.39,5.15-5.62,1.24-1.24,3.15-3.43,4.29-4.77s3.05-3.34,4.1-4.48c1.05-1.05,3.43-3.72,5.15-5.72,1.81-2.1,3.34-3.81,3.43-3.91s1.14-1.24,2.29-2.57c3.15-3.53,5.82-6.48,12.2-13.25,3.34-3.53,6.77-7.34,11.25-12.2,1.43-1.62,2.86-3.15,3.15-3.43.29-.29,1.72-1.81,3.05-3.34,8.29-9.15,12.68-13.92,14.59-15.92,1.24-1.24,2.76-2.96,3.43-3.72.67-.76,2.29-2.48,3.43-3.72,1.24-1.24,2.67-2.86,3.34-3.62.67-.67,1.91-2.1,2.86-3.15.95-1.05,3.15-3.43,4.96-5.34,6.67-7.34,10.68-11.54,13.92-14.97,1.43-1.53,3.81-4,5.15-5.43s4.39-4.77,6.77-7.44,5.05-5.62,5.91-6.58,2.57-2.86,3.72-4.19,2.38-2.67,2.76-3.05c3.91-4.1,12.49-15.35,15.64-20.5,4.1-6.77,10.49-19.45,13.35-26.88.48-1.14.95-2.38,1.14-2.86.57-1.33,3.15-9.15,3.91-11.82,1.62-5.82,4.1-17.83,4.39-21.07.1-1.05.48-3.53.76-5.62,1.33-9.06,1.72-38.04.67-50.24-.38-4.1-2.48-15.73-4.1-22.12-1.33-5.53-3.34-12.39-4.67-16.11-.29-.76-.95-2.57-1.43-4-2-5.82-8.87-20.21-12.49-26.22-2.29-3.72-6.2-9.82-6.77-10.49-.19-.19-1.14-1.62-2.29-3.15s-2.67-3.72-3.62-4.86-2.19-2.67-2.67-3.43c-1.91-2.38-7.44-8.48-11.82-12.97-3.72-3.72-5.82-5.72-10.68-10.2-.29-.29-6.67-5.34-8.68-6.86-3.53-2.76-11.34-7.82-19.83-12.87-2.29-1.33-9.82-5.05-12.39-6.1-1.05-.48-2.1-.95-2.29-1.05-.48-.38-6.58-2.76-10.3-4.1-4.48-1.62-9.25-3.05-15.16-4.48-9.72-2.29-11.82-2.67-24.02-3.53-5.34-.38-27.27-.57-30.79-.29l.19-.19ZM607.15,209.4c5.24.48,12.01,1.43,14.49,2,1.14.19,2.96.57,4.19.86s2.96.67,4,.86c1.05.29,2.48.57,3.15.76,2.76.57,9.34,2.48,11.15,3.34.48.19,1.05.38,1.24.38s.86.29,1.53.57c9.34,4.19,12.3,5.62,16.21,7.72.76.48,2.86,1.53,4.58,2.48,3.62,1.91,11.34,6.96,14.59,9.44.38.38,1.05.76,1.33,1.05,7.72,5.91,20.12,18.21,24.02,23.83.57.86,1.72,2.38,2.48,3.34s2.1,2.76,3.05,4.19,2.1,3.15,2.67,4.1c2.76,4.1,5.62,9.15,7.05,11.92,2.1,4.29,3.62,7.63,3.62,7.72s1.24,3.05,2.57,5.72c1.14,2.57,2.86,6.96,3.53,9.06.29,1.05.95,3.24,1.43,4.96.48,1.72.95,3.24,1.05,3.43s.29.76.38,1.43c.19.95,1.05,4.67,2.1,9.06.19.95.76,4.96,1.05,8.2.19,1.91.48,3.53.57,3.72.48.67,1.05,11.15,1.05,19.73s-.38,14.87-1.14,21.55c-.19,1.81-.57,4.67-.76,6.48-.19,1.72-.48,3.91-.76,4.77-.76,2.96-1.62,6.77-1.91,8.58-.19,1.05-.67,2.67-.95,3.72-.38.95-.67,2-.67,2.29s-.19.76-.38,1.05c-.19.38-.38.86-.38,1.05,0,.57-1.24,4-1.53,4.77-.19.29-.48,1.33-.76,2.19s-.57,1.81-.67,2-.76,1.62-1.33,3.05c-.57,1.43-1.81,4.1-2.57,5.82-.86,1.81-1.53,3.34-1.53,3.43s-.57,1.05-1.14,2.19c-.67,1.14-1.53,2.67-1.91,3.53-1.62,3.05-4.1,7.05-5.53,8.96-.57.86-1.05,1.62-1.05,1.72s-.19.48-.48.76c-.29.19-.86.86-1.24,1.43-.38.57-1.53,1.91-2.48,3.05-1.05,1.14-1.81,2.1-1.81,2.19s-.76.86-1.62,1.81c-.95.95-2.1,2.19-2.67,2.86-1.33,1.62-7.53,8.2-11.82,12.49-4.77,4.86-14.87,15.35-17.54,18.21-1.14,1.24-3.62,3.81-5.43,5.72-6.77,7.05-13.16,13.92-15.92,16.97-.19.19-2.86,3.15-6.01,6.48-3.15,3.43-6.86,7.44-8.29,9.06-1.33,1.62-2.57,2.96-2.76,3.15-.19.19-1.05,1.14-2.1,2.29-1.05,1.14-2.86,3.15-4.1,4.48-1.33,1.33-3.72,4-5.24,5.82-1.62,1.81-4,4.39-5.15,5.62-1.24,1.33-2.67,2.86-3.15,3.43-1.33,1.53-7.44,8.01-9.91,10.58-4.29,4.48-5.05,5.24-5.05,5.53s-.1.29-.29.29-1.24.95-2.48,2.19l-2.19,2.1-1.05-1.24c-2.38-2.86-24.5-24.22-28.89-27.84-1.05-.86-2.57-2.19-3.43-3.05s-4-3.81-7.05-6.77c-6.39-6.2-6.1-5.82-22.4-21.93-16.49-16.4-22.79-22.5-26.31-25.55-3.43-3.05-24.98-23.93-31.75-30.79-7.15-7.25-14.59-14.3-19.83-18.88-2.57-2.29-6.2-5.62-8.1-7.44-1.81-1.81-5.24-5.05-7.44-7.15s-6.48-6.2-9.44-9.15c-2.96-2.86-7.63-7.44-10.39-10.11-5.24-5.05-16.3-15.83-25.74-25.26-5.43-5.34-9.63-9.91-9.63-10.39s.57-.86,1.33-1.62c.76-.76,2.38-2.48,3.62-3.81s3.15-3.34,4.19-4.48,2.57-2.76,3.34-3.72,1.62-1.81,1.72-1.91c.19-.19,1.53-1.53,3.05-3.15,1.43-1.62,3.53-3.91,4.67-5.15,6.1-6.48,9.44-10.11,11.06-11.92,1.05-1.14,3.62-3.91,5.72-6.2,12.3-13.06,15.44-16.4,18.78-20.31,2.96-3.34,6.77-7.34,12.77-13.54,2.57-2.67,5.53-5.62,6.29-6.58,5.24-5.82,7.15-7.91,9.44-10.3,1.33-1.43,2.57-2.86,2.86-3.15.19-.38,1.05-1.24,1.72-1.91.76-.76,2.86-3.05,4.77-5.05,9.72-10.49,19.07-19.35,26.22-24.98,1.14-.95,2.38-1.91,2.76-2.29s1.14-.95,1.91-1.43,1.91-1.24,2.57-1.81c4.67-3.24,12.49-7.63,18.78-10.58,9.53-4.48,17.16-7.34,26.69-9.82,5.72-1.53,8.01-1.91,14.97-2.86,2.86-.38,5.53-.76,6.01-.86,4.1-.86,19.26-1.24,25.74-.57h.1ZM365.29,394.64c.38.19.86.57,1.14.76s1.62,1.53,3.15,2.76c3.15,2.76,4.96,4.48,13.63,12.97,3.62,3.53,6.48,6.39,6.48,6.29s.86.67,1.91,1.62c1.05,1.05,2.86,2.67,3.91,3.72s2.67,2.48,3.43,3.24c4,3.91,16.97,16.4,21.55,20.88,5.91,5.82,7.15,6.96,11.73,11.34,9.34,8.96,17.26,16.59,21.74,20.97,9.34,9.15,10.39,10.2,10.58,10.2s2.19,2,4.67,4.39c2.48,2.48,5.82,5.72,7.53,7.25,1.62,1.53,4.96,4.77,7.34,7.05s4.96,4.77,5.72,5.43,2.86,2.67,4.58,4.39c1.72,1.72,3.24,3.15,3.43,3.15s.48.29.76.67c.29.38,1.14,1.24,1.91,1.91s4.19,3.91,7.53,7.15c3.34,3.24,7.53,7.25,9.34,8.96s4.96,4.67,6.96,6.58c2.1,2,4.77,4.58,6.1,5.72,3.72,3.43,16.3,16.11,16.3,16.4s-.29.57-.76.86c-.38.29-1.24,1.24-1.81,2.1-.57.76-1.43,1.81-1.91,2.29s-1.14,1.33-1.62,2c-.48.57-1.33,1.62-1.91,2.19-.57.57-1.72,1.81-2.57,2.76s-3.43,3.72-5.91,6.2c-2.38,2.48-5.24,5.43-6.39,6.77-3.81,4.29-4.29,4.86-5.43,6.01-.67.67-1.91,2-2.86,3.05-2,2.1-11.82,12.49-13.54,14.21-.67.67-2,2.1-3.05,3.15-1.91,2-8.87,9.44-11.82,12.49-.86.95-2,2.19-2.57,2.76s-2.29,2.48-3.72,4.1-3.53,3.91-4.58,4.96c-1.05,1.14-3.91,4.19-6.29,6.77-2.48,2.57-5.53,5.82-6.77,7.15-1.24,1.33-2.96,3.15-3.81,4s-1.53,1.62-1.62,1.81c-.1.38-6.1,6.58-8.29,8.68-2.38,2.29-2.86,2.76-5.82,5.34-1.33,1.14-2.76,2.48-3.15,2.86-1.24,1.33-5.24,4.67-6.86,5.91-.86.57-1.91,1.53-2.48,1.91-.86.76-8.58,6.01-9.91,6.77-.38.19-.95.57-1.33.86-.29.29-1.14.76-1.81,1.05s-1.33.67-1.43.86c-.19.38-1.33.95-5.53,3.15-1.53.76-2.86,1.33-3.05,1.33s-1.33.48-2.67,1.05c-1.24.57-2.48,1.05-2.76,1.05s-.86.19-1.24.38c-.86.48-2.48,1.05-5.53,1.91-1.14.38-2.96.86-3.91,1.14-3.53,1.05-6.96,1.91-12.77,2.86-13.44,2.38-23.83,2.86-33.94,1.62-8.2-.95-9.72-1.24-14.11-1.91-3.53-.57-12.2-2.67-13.16-3.15-.29-.19-1.81-.57-3.34-.95s-2.96-.76-3.15-.86c-.19-.1-1.14-.48-2.19-.67-1.05-.29-2.57-.86-3.43-1.24-1.53-.76-3.05-1.33-4.19-1.81-3.34-1.33-11.25-5.34-12.11-6.01-.29-.29-1.14-.76-1.81-1.14s-1.53-.86-1.72-1.05c-.19-.19-.57-.38-.76-.38s-1.33-.76-2.57-1.62c-1.24-.86-3.05-2-3.91-2.48-.95-.48-1.91-1.05-2.29-1.33-.29-.29-.86-.67-1.33-.86-.95-.48-1.72-.95-2.38-1.62-.29-.29-.76-.48-.95-.48s-.57-.19-.76-.48c-.19-.29-1.14-1.05-2.1-1.81s-1.81-1.33-1.91-1.43-.57-.48-1.05-.76c-3.15-2.19-15.06-13.92-18.21-17.92-.95-1.14-2-2.48-2.38-2.86s-1.14-1.53-1.72-2.38c-.57-.95-1.33-1.91-1.53-2.1s-.76-.95-1.14-1.62-.86-1.24-.95-1.33c-.29-.19-2.29-3.43-3.24-5.05-1.53-2.76-2.29-4-2.67-4.48-.19-.19-.38-.57-.38-.76s-.19-.48-.38-.67-.48-.67-.57-1.14c0-.48-.48-1.43-.86-2.29-.38-.76-.67-1.62-.67-1.81s-.19-.67-.38-1.05c-1.33-2.57-3.62-10.49-4.19-14.59-.67-4.1-1.24-11.06-1.33-14.97,0-5.82.29-19.45.67-21.83.57-3.81,1.24-7.72,1.62-9.63.19-1.05.67-3.34,1.05-5.05.57-3.24,2.19-9.44,4.29-16.68.76-2.57,3.34-9.91,3.72-10.68.19-.29.95-1.91,1.62-3.53,1.33-2.96,2.29-4.86,5.05-10.39,2.19-4.19,2.29-4.29,3.91-6.77.86-1.24,1.53-2.29,1.53-2.38s.67-1.05,1.53-2.29c.76-1.14,1.62-2.38,1.81-2.76.19-.29.57-.86.95-1.24.29-.38.57-.76.57-.95s.29-.57.76-.76.76-.67.76-.86.29-.57.57-.86c.38-.29,1.14-1.33,1.81-2.19s2.1-2.67,3.15-3.81c1.05-1.24,2.1-2.38,2.19-2.57s.48-.38.67-.38.38-.1.38-.19c0-.29,6.2-6.86,15.06-15.83,3.05-3.05,8.1-8.29,11.25-11.63,8.1-8.39,13.92-14.4,19.73-20.4,2.76-2.86,6.2-6.39,7.63-7.91,5.72-6.2,8.39-9.06,9.63-10.11,2-1.91,2.29-2.1,6.39-6.67,2.1-2.38,4.67-5.15,5.72-6.2,3.24-3.34,10.2-10.77,11.92-12.77.95-1.05,2.96-3.24,4.48-4.86s4.1-4.39,5.72-6.2c1.62-1.72,3.05-3.24,3.05-3.24,0,0,.38.1.76.29l-.1.29Z"/></svg>