<svg xmlns="http://www.w3.org/2000/svg" width="32" height="32" fill="none" viewBox="0 0 200 200" class="size-6"><rect width="200" height="200" fill="#0E0B31" rx="100"/><circle cx="99.983" cy="99.984" r="92.25" stroke="#120370" stroke-width="3.5"/><circle cx="99.983" cy="99.984" r="92.25" stroke="#F09242" stroke-width="3.5"/><path fill="url(#eBTC_svg__a)" d="M134.648 81.664c-1.098-11.457-10.981-15.3-23.481-16.472V49.416h-9.664V64.9H93.78V49.416h-9.59v15.886H64.587v10.34s7.138-.127 7.028 0a4.997 4.997 0 0 1 5.49 4.247v43.486a3.39 3.39 0 0 1-1.17 2.361 3.35 3.35 0 0 1-2.49.842c.128.11-7.028 0-7.028 0l-1.83 11.548h19.418v16.143h9.664v-15.905h7.723v15.832h9.682v-15.96c16.326-.988 27.71-5.015 29.137-20.297 1.153-12.299-4.63-17.79-13.873-20.004 5.619-2.764 9.096-7.888 8.309-16.27m-13.543 34.372c0 12.006-20.572 10.633-27.124 10.633v-21.303c6.552.018 27.124-1.867 27.124 10.67m-4.484-30.016c0 10.981-17.168 9.645-22.622 9.645V76.303c5.454 0 22.622-1.72 22.622 9.718"/><defs><linearGradient id="eBTC_svg__a" x1="69.838" x2="139.342" y1="118.302" y2="100.037" gradientUnits="userSpaceOnUse"><stop stop-color="#29BCFA"/><stop offset="0.43" stop-color="#6464E4"/><stop offset="1" stop-color="#B45AFA"/></linearGradient></defs></svg>