<svg width="203" height="185" viewBox="0 0 203 185" fill="none" xmlns="http://www.w3.org/2000/svg">
<path d="M29.639 5.49698C32.078 2.44675 36.4986 1.93881 39.746 4.10835C55.9543 14.9366 76.5425 21.9724 100.647 21.9724C125.094 21.9724 146.753 14.9737 162.922 4.1896C166.202 2.00179 170.676 2.49678 173.131 5.58242L201.06 40.6913C201.881 41.724 201.71 43.2286 200.661 44.0294C173.972 64.4083 138.639 76.2987 100.647 76.2988C62.2524 76.2988 28.0396 63.5757 1.92772 44.0294C0.861323 43.2312 0.681649 41.7103 1.51356 40.6699L29.639 5.49698Z" fill="#DA0000"/>
<path d="M29.639 178.872C32.078 181.922 36.4986 182.43 39.746 180.26C55.9543 169.432 76.5425 162.396 100.647 162.396C125.094 162.396 146.753 169.395 162.922 180.179C166.202 182.367 170.676 181.872 173.131 178.786L201.06 143.677C201.881 142.645 201.71 141.14 200.661 140.339C173.972 119.96 138.639 108.07 100.647 108.07C62.2524 108.07 28.0396 120.793 1.92772 140.339C0.861323 141.137 0.681649 142.658 1.51356 143.699L29.639 178.872Z" fill="#DA0000"/>
</svg>
