<?xml version="1.0" encoding="UTF-8"?><svg id="Calque_2" xmlns="http://www.w3.org/2000/svg" viewBox="0 0 964 964"><defs><style>.cls-1{fill:#fff;}.cls-2{fill:#f2f2f2;}</style></defs><g id="Calque_2-2"><g id="uuid-c8a7be53-2026-442a-be4f-7c18a31c6825"><g id="Calque_1-2"><path class="cls-2" d="M484,949c-63.05,0-124.21-12.35-181.77-36.69-55.61-23.52-105.55-57.19-148.45-100.09-42.89-42.89-76.57-92.84-100.09-148.45-24.35-57.56-36.69-118.72-36.69-181.77s12.35-124.21,36.69-181.77c23.52-55.61,57.19-105.55,100.09-148.45,42.9-42.9,92.84-76.57,148.45-100.09,57.56-24.35,118.72-36.69,181.77-36.69s124.21,12.35,181.77,36.69c55.61,23.52,105.55,57.19,148.45,100.09,42.89,42.89,76.57,92.84,100.09,148.45,24.35,57.56,36.69,118.72,36.69,181.77s-12.35,124.21-36.69,181.77c-23.52,55.61-57.19,105.55-100.09,148.45-42.9,42.9-92.84,76.57-148.45,100.09-57.56,24.35-118.72,36.69-181.77,36.69h0Z"/><path d="M482,30c61.03,0,120.22,11.95,175.93,35.51,53.82,22.76,102.16,55.36,143.68,96.88,41.52,41.52,74.12,89.86,96.88,143.68,23.56,55.71,35.51,114.9,35.51,175.93s-11.95,120.22-35.51,175.93c-22.76,53.82-55.36,102.16-96.88,143.68-41.52,41.52-89.86,74.12-143.68,96.88-55.71,23.56-114.9,35.51-175.93,35.51s-120.22-11.95-175.93-35.51c-53.82-22.76-102.16-55.36-143.68-96.88-41.52-41.52-74.12-89.86-96.88-143.68-23.56-55.71-35.51-114.9-35.51-175.93s11.95-120.22,35.51-175.93c22.76-53.82,55.36-102.16,96.88-143.68,41.52-41.52,89.86-74.12,143.68-96.88,55.71-23.56,114.9-35.51,175.93-35.51M482,0C215.8,0,0,215.8,0,482s215.8,482,482,482,482-215.8,482-482S748.2,0,482,0h0Z"/></g><path d="M486.27,871.74c215.99,0,389.76-173.76,389.76-389.76S702.26,92.23,486.27,92.23,96.52,265.99,96.52,481.98s173.76,389.76,389.76,389.76Z"/><path class="cls-1" d="M593.46,543.69c0-56.84-34.1-76.33-102.31-84.44-48.72-6.5-58.46-19.49-58.46-42.23s16.24-37.35,48.72-37.35c29.23,0,45.47,9.74,53.59,34.1,1.63,4.87,6.5,8.12,11.37,8.12h25.98c6.5,0,11.37-4.87,11.37-11.37v-1.63c-6.5-35.73-35.73-63.34-73.08-66.58v-38.98c0-6.5-4.87-11.37-12.99-12.99h-24.36c-6.5,0-11.37,4.87-12.99,12.99v37.35c-48.72,6.5-79.57,38.98-79.57,79.58,0,53.59,32.48,74.7,100.69,82.82,45.47,8.12,60.09,17.86,60.09,43.85s-22.74,43.85-53.59,43.85c-42.23,0-56.84-17.87-61.71-42.23-1.62-6.49-6.49-9.74-11.37-9.74h-27.61c-6.49,0-11.37,4.87-11.37,11.37v1.63c6.49,40.6,32.48,69.83,86.07,77.95v38.98c0,6.49,4.87,11.37,12.99,12.99h24.36c6.5,0,11.37-4.87,12.99-12.99v-38.98c48.72-8.12,81.2-42.23,81.2-86.07h0Z"/><path class="cls-1" d="M403.45,714.21c-126.67-45.47-191.63-186.76-144.53-311.8,24.36-68.21,77.95-120.17,144.53-144.53,6.5-3.25,9.74-8.12,9.74-16.24v-22.73c0-6.5-3.25-11.37-9.74-12.99-1.63,0-4.87,0-6.5,1.62-154.28,48.72-238.73,212.74-190.01,367.02,29.23,90.94,99.06,160.77,190.01,190.01,6.5,3.25,12.99,0,14.62-6.5,1.63-1.62,1.63-3.25,1.63-6.49v-22.74c0-4.87-4.87-11.37-9.74-14.62ZM575.59,207.53c-6.5-3.25-12.99,0-14.62,6.5-1.63,1.63-1.63,3.25-1.63,6.5v22.73c0,6.5,4.87,12.99,9.74,16.24,126.67,45.47,191.63,186.76,144.53,311.8-24.36,68.21-77.95,120.17-144.53,144.53-6.5,3.25-9.74,8.12-9.74,16.24v22.73c0,6.5,3.25,11.37,9.74,12.99,1.63,0,4.87,0,6.5-1.62,154.28-48.72,238.73-212.74,190.01-367.02-29.23-92.57-100.69-162.4-190.01-191.63h0Z"/></g></g></svg>