<svg xmlns="http://www.w3.org/2000/svg" width="2500" height="1875" fill="none"><path fill="#F3F3F1" d="M0 0h2500v1875H0z"/><rect width="817" height="817" x="841" y="529" fill="#FF0421" rx="80"/><path fill="#FAFAF9" d="M1249.77 576.871c156.99 0 284.3 127.309 284.3 284.304 0 156.995-127.31 284.305-284.3 284.305v152.63c-157 0-284.304-127.31-284.304-284.31 0-156.994 127.304-284.301 284.304-284.301V576.871Zm-1.32 219.963c-30.88 62.008-77.33 108.452-139.34 139.337v2.635c62.01 30.884 108.46 77.334 139.34 139.334h2.64c30.88-62 77.33-108.45 139.33-139.334v-2.635c-62-30.885-108.45-77.329-139.33-139.337h-2.64Z"/></svg>