<svg width="30" height="30" viewBox="0 0 30 30" fill="none" xmlns="http://www.w3.org/2000/svg">
<path d="M26.6728 19.9387C26.6728 26.2372 21.6208 30 15.3873 30C9.15384 30 4.81484 26.2781 4 21.5337H9.74461C10.3761 23.3333 12.4336 24.6421 15.3873 24.6421C18.6671 24.6421 21.0301 22.9857 21.0301 20.0409C21.0301 17.0961 18.7282 15.5828 15.367 15.5828V19.7342C9.03162 19.7342 4.18334 16.135 4.18334 10.1227C4.18334 4.11042 8.84826 0 15.4077 0C21.6208 0 25.8987 3.70145 26.3265 8.26177H20.7856C20.3375 6.62576 18.5245 5.37832 15.5299 5.37832C11.8835 5.37832 9.86683 7.07566 9.86683 9.95909C9.86683 12.8425 12.1891 14.2331 15.367 14.2331V9.8773C22.2523 9.8773 26.6728 14.0082 26.6728 19.9387Z" fill="black"/>
</svg>
