<svg xmlns="http://www.w3.org/2000/svg" xmlns:xlink="http://www.w3.org/1999/xlink" viewBox="0 0 423.83 423.83"><defs><style>.a{fill:url(#a);}.b{fill:#fff;}</style><linearGradient id="a" y1="423.83" x2="423.83" gradientUnits="userSpaceOnUse"><stop offset="0" stop-color="#e71d73"/><stop offset="0.3" stop-color="#2d2e83"/><stop offset="0.64" stop-color="#00a19a"/><stop offset="0.9" stop-color="#95c11f"/><stop offset="1" stop-color="#fcea10"/></linearGradient></defs><title>unibright</title><polygon class="a" points="0 0 0 423.83 423.83 423.83 423.83 141.66 423.83 0 0 0"/><path class="b" d="M311.69,125.69,283.5,97.36h-91V280.27H147V124.75H110.14V288.94l28.19,28.19h62.84l27.38-27.38H283.5l28.19-28.19v-57.9l-10-9.76,10-10Zm-82.33,8.53h45.48v41H229.36ZM275,252.89H229.36v-41H275Z"/><path class="b" d="M82,390.52Q78.4,386.82,78.4,379V355.81h5.41v23.73q0,5.28,2.22,7.69t7,2.41q4.77,0,7-2.41t2.22-7.69V355.81h5.31V379q0,7.84-3.51,11.54t-11,3.71Q85.5,394.23,82,390.52Z"/><path class="b" d="M140.46,355.81h5.13v37.93h-5.51L120.6,364.09v29.65h-5.12V355.81H121l19.47,29.65Z"/><path class="b" d="M153.68,393.74V355.81h5.44v37.93Z"/><path class="b" d="M192.36,377.24a9.28,9.28,0,0,1,1.94,6.09,9.82,9.82,0,0,1-1.74,5.95,10.61,10.61,0,0,1-5.56,3.6,33.82,33.82,0,0,1-10,1.22,79.69,79.69,0,0,1-9.79-.64v-37a54.94,54.94,0,0,1,11-1.1q7.81,0,11.43,2.51t3.61,7.72a9.1,9.1,0,0,1-1.62,5.44,8.27,8.27,0,0,1-4.89,3.09A9.25,9.25,0,0,1,192.36,377.24Zm-19.84-17.17v12.12h6.87c3.07,0,5.29-.52,6.65-1.54a5.61,5.61,0,0,0,2-4.77,6.41,6.41,0,0,0-.92-3.65,5.35,5.35,0,0,0-3-2,18.08,18.08,0,0,0-5.42-.66A34.84,34.84,0,0,0,172.52,360.07Zm12.23,29.13a6.16,6.16,0,0,0,3.42-2.23,6.57,6.57,0,0,0,1-3.84,5.88,5.88,0,0,0-2.18-5.07q-2.18-1.62-6.89-1.62h-7.61v13.17a43.88,43.88,0,0,0,5.74.34A22.45,22.45,0,0,0,184.75,389.2Z"/><path class="b" d="M223,393.74l-11.12-15.15q-.51,0-1.56,0-2.1,0-4.92-.18v15.3H200V356.5a54,54,0,0,1,10.63-1.1q7.77,0,11.55,2.81t3.78,8.7a10.68,10.68,0,0,1-2.23,7,12.15,12.15,0,0,1-6.59,3.88L229,393.74Zm-17.6-19.58c1.83.15,3.49.23,5,.23,3.63,0,6.3-.6,8-1.79s2.52-3.08,2.52-5.64a7.87,7.87,0,0,0-1-4.24,5.88,5.88,0,0,0-3.17-2.38,16.75,16.75,0,0,0-5.55-.76,29.46,29.46,0,0,0-3,.13c-.87.08-1.81.21-2.8.38Z"/><path class="b" d="M234.09,393.74V355.81h5.44v37.93Z"/><path class="b" d="M275,375.29v18a53.9,53.9,0,0,1-8.79.77q-10.08,0-15.1-4.69t-5-14.56q0-9.92,5-14.72t14.41-4.8a34.8,34.8,0,0,1,8.53,1.07V361a31.19,31.19,0,0,0-8.12-1.08,18.18,18.18,0,0,0-7.8,1.48,10.1,10.1,0,0,0-4.77,4.78,19.79,19.79,0,0,0-1.63,8.68,19.33,19.33,0,0,0,1.57,8.38A9.89,9.89,0,0,0,258,388a17.84,17.84,0,0,0,7.84,1.51,39.2,39.2,0,0,0,4.1-.21v-14Z"/><path class="b" d="M282.75,393.74V355.81h5.44v16.07h18.68V355.81h5.43v37.93h-5.43v-17H288.19v17Z"/><path class="b" d="M329.11,393.74V360.45H316.68v-4.64H347v4.64H334.54v33.29Z"/></svg>