<?xml version="1.0" encoding="UTF-8"?>
<svg xmlns="http://www.w3.org/2000/svg" xmlns:xlink="http://www.w3.org/1999/xlink" width="25px" height="25px" viewBox="0 0 25 25" version="1.1">
<defs>
<linearGradient id="linear0" gradientUnits="userSpaceOnUse" x1="-67.2646" y1="679.372" x2="888.229" y2="-34.3057" gradientTransform="matrix(0.0416667,0,0,0.0416667,0,0)">
<stop offset="0" style="stop-color:rgb(100%,0%,100%);stop-opacity:1;"/>
<stop offset="0.462607" style="stop-color:rgb(47.843137%,51.764706%,100%);stop-opacity:1;"/>
<stop offset="1" style="stop-color:rgb(1.960784%,98.039216%,100%);stop-opacity:1;"/>
</linearGradient>
<linearGradient id="linear1" gradientUnits="userSpaceOnUse" x1="345.594" y1="300.189" x2="254.756" y2="300.189" gradientTransform="matrix(0.0416667,0,0,0.0416667,0,0)">
<stop offset="0" style="stop-color:rgb(80%,80%,80%);stop-opacity:1;"/>
<stop offset="0.02" style="stop-color:rgb(81.176471%,81.176471%,81.176471%);stop-opacity:0.929412;"/>
<stop offset="0.08" style="stop-color:rgb(86.666667%,86.666667%,86.666667%);stop-opacity:0.65098;"/>
<stop offset="0.14" style="stop-color:rgb(91.372549%,91.372549%,91.372549%);stop-opacity:0.419608;"/>
<stop offset="0.2" style="stop-color:rgb(94.901961%,94.901961%,94.901961%);stop-opacity:0.239216;"/>
<stop offset="0.25" style="stop-color:rgb(97.647059%,97.647059%,97.647059%);stop-opacity:0.109804;"/>
<stop offset="0.3" style="stop-color:rgb(99.215686%,99.215686%,99.215686%);stop-opacity:0.0313725;"/>
<stop offset="0.33" style="stop-color:rgb(100%,100%,100%);stop-opacity:0;"/>
</linearGradient>
<linearGradient id="linear2" gradientUnits="userSpaceOnUse" x1="254.757" y1="300.189" x2="345.595" y2="300.189" gradientTransform="matrix(0.0416667,0,0,0.0416667,0,0)">
<stop offset="0" style="stop-color:rgb(80%,80%,80%);stop-opacity:1;"/>
<stop offset="0.02" style="stop-color:rgb(81.176471%,81.176471%,81.176471%);stop-opacity:0.929412;"/>
<stop offset="0.08" style="stop-color:rgb(86.666667%,86.666667%,86.666667%);stop-opacity:0.65098;"/>
<stop offset="0.14" style="stop-color:rgb(91.372549%,91.372549%,91.372549%);stop-opacity:0.419608;"/>
<stop offset="0.2" style="stop-color:rgb(94.901961%,94.901961%,94.901961%);stop-opacity:0.239216;"/>
<stop offset="0.25" style="stop-color:rgb(97.647059%,97.647059%,97.647059%);stop-opacity:0.109804;"/>
<stop offset="0.3" style="stop-color:rgb(99.215686%,99.215686%,99.215686%);stop-opacity:0.0313725;"/>
<stop offset="0.33" style="stop-color:rgb(100%,100%,100%);stop-opacity:0;"/>
</linearGradient>
<linearGradient id="linear3" gradientUnits="userSpaceOnUse" x1="238.162" y1="321.135" x2="158.676" y2="400.622" gradientTransform="matrix(0.0416667,0,0,0.0416667,0,0)">
<stop offset="0" style="stop-color:rgb(80%,80%,80%);stop-opacity:1;"/>
<stop offset="0.02" style="stop-color:rgb(81.176471%,81.176471%,81.176471%);stop-opacity:0.929412;"/>
<stop offset="0.08" style="stop-color:rgb(86.666667%,86.666667%,86.666667%);stop-opacity:0.65098;"/>
<stop offset="0.14" style="stop-color:rgb(91.372549%,91.372549%,91.372549%);stop-opacity:0.419608;"/>
<stop offset="0.2" style="stop-color:rgb(94.901961%,94.901961%,94.901961%);stop-opacity:0.239216;"/>
<stop offset="0.25" style="stop-color:rgb(97.647059%,97.647059%,97.647059%);stop-opacity:0.109804;"/>
<stop offset="0.3" style="stop-color:rgb(99.215686%,99.215686%,99.215686%);stop-opacity:0.0313725;"/>
<stop offset="0.33" style="stop-color:rgb(100%,100%,100%);stop-opacity:0;"/>
</linearGradient>
<linearGradient id="linear4" gradientUnits="userSpaceOnUse" x1="362.216" y1="279.216" x2="441.702" y2="199.73" gradientTransform="matrix(0.0416667,0,0,0.0416667,0,0)">
<stop offset="0" style="stop-color:rgb(80%,80%,80%);stop-opacity:1;"/>
<stop offset="0.02" style="stop-color:rgb(81.176471%,81.176471%,81.176471%);stop-opacity:0.929412;"/>
<stop offset="0.08" style="stop-color:rgb(86.666667%,86.666667%,86.666667%);stop-opacity:0.65098;"/>
<stop offset="0.14" style="stop-color:rgb(91.372549%,91.372549%,91.372549%);stop-opacity:0.419608;"/>
<stop offset="0.2" style="stop-color:rgb(94.901961%,94.901961%,94.901961%);stop-opacity:0.239216;"/>
<stop offset="0.25" style="stop-color:rgb(97.647059%,97.647059%,97.647059%);stop-opacity:0.109804;"/>
<stop offset="0.3" style="stop-color:rgb(99.215686%,99.215686%,99.215686%);stop-opacity:0.0313725;"/>
<stop offset="0.33" style="stop-color:rgb(100%,100%,100%);stop-opacity:0;"/>
</linearGradient>
</defs>
<g id="surface1">
<path style=" stroke:none;fill-rule:nonzero;fill:url(#linear0);" d="M 25 12.5 C 25 19.402344 19.402344 25 12.5 25 C 5.597656 25 0 19.402344 0 12.5 C 0 5.597656 5.597656 0 12.5 0 C 19.402344 0 25 5.597656 25 12.5 Z M 25 12.5 "/>
<path style="fill:none;stroke-width:1.5;stroke-linecap:butt;stroke-linejoin:miter;stroke:rgb(100%,100%,100%);stroke-opacity:1;stroke-miterlimit:4;" d="M 591.1875 300 C 591.1875 460.78125 460.78125 591.1875 300 591.1875 C 139.21875 591.1875 8.8125 460.78125 8.8125 300 C 8.8125 139.21875 139.21875 8.8125 300 8.8125 C 460.78125 8.8125 591.1875 139.21875 591.1875 300 Z M 591.1875 300 " transform="matrix(0.0416667,0,0,0.0416667,0,0)"/>
<path style=" stroke:none;fill-rule:nonzero;fill:rgb(100%,100%,100%);fill-opacity:1;" d="M 14.398438 10.941406 L 10.613281 10.941406 L 10.613281 14.070312 L 14.398438 14.070312 L 14.398438 17.566406 L 17.527344 17.566406 L 17.527344 15.609375 C 17.527344 14.625 17.136719 13.683594 16.441406 12.984375 C 15.761719 12.304688 15.082031 11.625 14.398438 10.941406 Z M 14.398438 10.941406 "/>
<path style=" stroke:none;fill-rule:nonzero;fill:rgb(100%,100%,100%);fill-opacity:1;" d="M 10.613281 14.070312 L 14.398438 14.070312 L 14.398438 10.941406 L 10.613281 10.941406 L 10.613281 7.449219 L 7.484375 7.449219 L 7.484375 9.402344 C 7.484375 10.386719 7.875 11.332031 8.570312 12.027344 C 9.269531 12.726562 9.933594 13.390625 10.613281 14.070312 Z M 10.613281 14.070312 "/>
<path style=" stroke:none;fill-rule:nonzero;fill:url(#linear1);" d="M 10.613281 14.070312 L 14.398438 14.070312 L 14.398438 10.941406 L 10.613281 10.941406 Z M 10.613281 14.070312 "/>
<path style=" stroke:none;fill-rule:nonzero;fill:url(#linear2);" d="M 14.398438 10.941406 L 10.613281 10.941406 L 10.613281 14.070312 L 14.398438 14.070312 Z M 14.398438 10.941406 "/>
<path style=" stroke:none;fill-rule:nonzero;fill:rgb(100%,100%,100%);fill-opacity:1;" d="M 9.527344 12.984375 C 8.847656 12.304688 8.167969 11.625 7.484375 10.941406 L 7.484375 17.566406 L 10.613281 17.566406 L 10.613281 15.609375 C 10.613281 14.625 10.222656 13.683594 9.527344 12.984375 Z M 9.527344 12.984375 "/>
<path style=" stroke:none;fill-rule:nonzero;fill:url(#linear3);" d="M 9.527344 12.984375 C 8.847656 12.304688 8.167969 11.625 7.484375 10.941406 L 7.484375 17.566406 L 10.613281 17.566406 L 10.613281 15.609375 C 10.613281 14.625 10.222656 13.683594 9.527344 12.984375 Z M 9.527344 12.984375 "/>
<path style=" stroke:none;fill-rule:nonzero;fill:rgb(100%,100%,100%);fill-opacity:1;" d="M 15.488281 12.027344 C 16.167969 12.710938 16.847656 13.390625 17.53125 14.070312 L 17.53125 7.449219 L 14.402344 7.449219 L 14.402344 9.402344 C 14.402344 10.386719 14.792969 11.332031 15.488281 12.027344 Z M 15.488281 12.027344 "/>
<path style=" stroke:none;fill-rule:nonzero;fill:url(#linear4);" d="M 15.488281 12.027344 C 16.167969 12.710938 16.847656 13.390625 17.53125 14.070312 L 17.53125 7.449219 L 14.402344 7.449219 L 14.402344 9.402344 C 14.402344 10.386719 14.792969 11.332031 15.488281 12.027344 Z M 15.488281 12.027344 "/>
</g>
</svg>
