<svg width="62" height="62" viewBox="0 0 62 62" fill="none" xmlns="http://www.w3.org/2000/svg">
<path d="M30.9994 1.54258H31.0006C47.2691 1.54258 60.4574 14.7309 60.4574 30.9994V31.0006C60.4574 47.2691 47.2691 60.4574 31.0006 60.4574H30.9994C14.7309 60.4574 1.54258 47.2691 1.54258 31.0006V30.9994C1.54258 14.7309 14.7309 1.54258 30.9994 1.54258Z" fill="white" stroke="#111111" stroke-width="1.08516"/>
<path d="M31.0006 1H30.9994C14.4312 1 1 14.4312 1 30.9994V31.0006C1 47.5688 14.4312 61 30.9994 61H31.0006C47.5688 61 61 47.5688 61 31.0006V30.9994C61 14.4312 47.5688 1 31.0006 1Z" fill="url(#paint0_radial_1337_1287)" fill-opacity="0.7"/>
<path d="M31.0006 1H30.9994C14.4312 1 1 14.4312 1 30.9994V31.0006C1 47.5688 14.4312 61 30.9994 61H31.0006C47.5688 61 61 47.5688 61 31.0006V30.9994C61 14.4312 47.5688 1 31.0006 1Z" stroke="url(#paint1_linear_1337_1287)" stroke-width="1.09889"/>
<path fill-rule="evenodd" clip-rule="evenodd" d="M55.6406 26.1997C53.4091 14.6139 43.2161 5.8623 30.979 5.8623C18.7419 5.8623 8.54888 14.6139 6.31736 26.1996L8.67122 26.1996C10.8674 15.8965 20.0208 8.16883 30.979 8.16884C41.9372 8.16884 51.0906 15.8965 53.2868 26.1997L55.6406 26.1997ZM53.2775 35.7997L55.6322 35.7997C53.3836 47.3638 43.2008 56.0935 30.979 56.0935C18.7572 56.0935 8.57439 47.3638 6.32577 35.7996L8.68053 35.7997C10.8932 46.081 20.0362 53.787 30.979 53.787C41.9218 53.787 51.0648 46.081 53.2775 35.7997Z" fill="black"/>
<path d="M34.5566 30.139C36.4729 30.5043 37.9593 31.2086 39.0157 32.2521C40.0722 33.2695 40.6004 34.5738 40.6004 36.1651V38.6695C40.6004 40.5738 39.9125 42.1129 38.5367 43.2869C37.1609 44.4347 35.3551 45.0086 33.1194 45.0086H32.3455H31.4248H30.4902H29.6921H28.8814C27.4073 45.0086 26.1052 44.6825 24.9751 44.0303C23.8449 43.3521 22.9605 42.4129 22.3217 41.2129C21.7075 39.9869 21.4004 38.5782 21.4004 36.9869H24.0537C24.0537 38.6043 24.496 39.9216 25.3804 40.939C26.2895 41.9303 27.481 42.426 28.9551 42.426H33.0457C34.4952 42.426 35.6622 42.0869 36.5466 41.4086C37.4311 40.7043 37.8733 39.7912 37.8733 38.6695V36.1651C37.8733 35.2782 37.5417 34.5216 36.8783 33.8956C36.2395 33.2695 35.3551 32.8651 34.225 32.6825L27.5916 31.5086C25.7244 31.1695 24.2749 30.4651 23.243 29.3956C22.2111 28.326 21.6952 26.9825 21.6952 25.3651V23.2521C21.6952 21.3477 22.3585 19.8347 23.6852 18.7129C25.0365 17.5651 26.8177 16.9912 29.0288 16.9912H29.6921H30.4004L31.2471 16.9912L32.3455 16.9912H33.1931C35.2814 16.9912 36.9643 17.6695 38.2418 19.026C39.5194 20.3564 40.1582 22.1173 40.1582 24.3086H37.5048C37.5048 22.8738 37.1117 21.726 36.3255 20.8651C35.5394 20.0043 34.4952 19.5738 33.1931 19.5738H29.0288C27.6284 19.5738 26.5106 19.9129 25.6752 20.5912C24.8399 21.2434 24.4223 22.1303 24.4223 23.2521V25.3651C24.4223 26.2782 24.7294 27.0477 25.3436 27.6738C25.9823 28.2999 26.8545 28.7173 27.9601 28.926L34.5566 30.139Z" fill="black"/>
<rect x="27.4004" y="13" width="2.64" height="4.8" fill="black"/>
<rect x="32.2012" y="13" width="2.64" height="4.8" fill="black"/>
<rect x="27.4004" y="44.2002" width="2.64" height="4.8" fill="black"/>
<rect x="32.2012" y="44.2002" width="2.64" height="4.8" fill="black"/>
<defs>
<radialGradient id="paint0_radial_1337_1287" cx="0" cy="0" r="1" gradientUnits="userSpaceOnUse" gradientTransform="translate(31.0645 9.76077) rotate(90) scale(63.253 44.5238)">
<stop offset="0.03125" stop-color="#FAFAFA"/>
<stop offset="1" stop-color="#E3E3E3"/>
</radialGradient>
<linearGradient id="paint1_linear_1337_1287" x1="31" y1="0.433957" x2="31" y2="61.5661" gradientUnits="userSpaceOnUse">
<stop stop-color="#F4F4F4"/>
<stop offset="1" stop-color="#BEBEBE"/>
</linearGradient>
</defs>
</svg>
