<svg xmlns="http://www.w3.org/2000/svg" xmlns:xlink="http://www.w3.org/1999/xlink" viewBox="0 0 146.88 146.88"><defs><style>.cls-1{fill:url(#radial-gradient);}.cls-2{fill:#041742;}.cls-3{fill:#26db8d;}</style><radialGradient id="radial-gradient" cx="129.5" cy="37.34" r="115.3" gradientUnits="userSpaceOnUse"><stop offset="0.1" stop-color="#26db8d"/><stop offset="0.26" stop-color="#23d29a"/><stop offset="0.56" stop-color="#1abbbb"/><stop offset="0.89" stop-color="#0e9de5"/></radialGradient></defs><title>ZEN</title><g id="Layer_2" data-name="Layer 2"><g id="Layer_2-2" data-name="Layer 2"><path class="cls-1" d="M133.15,30.7h0l-12,18.61a53.44,53.44,0,0,1-71.79,71.82l-18.6,12A73.42,73.42,0,0,0,133.15,30.7Z"/><path class="cls-2" d="M13.74,116.18h0l12-18.6A53.44,53.44,0,0,1,97.54,25.74l18.61-12A73.42,73.42,0,0,0,13.74,116.18Z"/><polygon class="cls-2" points="104.47 58.41 104.47 76.31 86.19 56.27 86.19 88.46 91.7 88.46 91.7 70.52 110.02 90.56 110.02 58.41 104.47 58.41"/><polygon class="cls-2" points="38.81 58.3 38.81 63.9 50.09 63.9 36.15 88.46 60.08 88.46 60.08 82.86 46.14 82.86 60.08 58.3 38.81 58.3"/><polygon class="cls-2" points="63.88 88.46 82.39 88.46 82.39 83.3 69.48 83.3 69.48 75.32 80.11 75.32 80.11 70.15 69.48 70.15 69.48 63.43 82.39 63.43 82.39 58.3 63.88 58.3 63.88 88.46"/><path class="cls-3" d="M73.08,28A45.38,45.38,0,1,1,27.71,73.41,45.37,45.37,0,0,1,73.08,28m0-2.82a48.2,48.2,0,1,0,48.2,48.19,48.25,48.25,0,0,0-48.2-48.19Z"/></g></g></svg>