<?xml version="1.0" encoding="utf-8"?>
<!-- Generator: Adobe Illustrator 28.0.0, SVG Export Plug-In . SVG Version: 6.00 Build 0)  -->
<svg version="1.1" id="Layer_2" xmlns="http://www.w3.org/2000/svg" xmlns:xlink="http://www.w3.org/1999/xlink" x="0px" y="0px"
	 viewBox="0 0 738.37 724.33" style="enable-background:new 0 0 738.37 724.33;" xml:space="preserve">
<style type="text/css">
	.st0{fill:#FFFFFF;}
</style>
<path class="st0" d="M364.22,386.31L364.22,386.31c-5.26,0-9.53-4.27-9.53-9.53v-69.9c0-5.26,4.27-9.53,9.53-9.53h0
	c5.26,0,9.53,4.27,9.53,9.53v69.9C373.75,382.04,369.48,386.31,364.22,386.31z"/>
<path class="st0" d="M437.35,386.31L437.35,386.31c-5.26,0-9.53-4.27-9.53-9.53v-69.9c0-5.26,4.27-9.53,9.53-9.53l0,0
	c5.26,0,9.53,4.27,9.53,9.53v69.9C446.88,382.04,442.61,386.31,437.35,386.31z"/>
<path class="st0" d="M618.24,615.04L480.18,209.72c-2.92-8.57-10.92-14.32-19.92-14.32H230.65c-9.4,0-17.66,6.27-20.24,15.36
	L95.1,616.08c-3.85,13.54,6.25,27.03,20.24,27.03h482.98C612.77,643.11,622.92,628.79,618.24,615.04z M251.73,214.99h200.14
	c8.28,0,15.64,5.23,18.32,13.03l86.64,251.51H301.99L233.1,239.57C229.57,227.25,238.86,214.99,251.73,214.99z M578.87,622.25
	H363.12c-11.94,0-22.42-7.88-25.7-19.3L304.73,489.1h255.39l37.07,107.62C601.51,609.23,594.43,622.25,578.87,622.25z"/>
<circle class="st0" cx="457.45" cy="584.96" r="8.09"/>
<circle class="st0" cx="487.03" cy="584.96" r="8.09"/>
<path class="st0" d="M308.99,196.45l64.9-133.8c3.56-7.35,14.62-4.74,14.52,3.43l-1.56,130.38H308.99z"/>
</svg>
