<?xml version="1.0" encoding="utf-8"?>
<!-- Generator: Adobe Illustrator 28.0.0, SVG Export Plug-In . SVG Version: 6.00 Build 0)  -->
<svg version="1.1" xmlns="http://www.w3.org/2000/svg" xmlns:xlink="http://www.w3.org/1999/xlink" x="0px" y="0px"
	 viewBox="0 0 738.37 724.33" style="enable-background:new 0 0 738.37 724.33;" xml:space="preserve">
<style type="text/css">
	.st0{fill:#F27237;}
	.st1{fill:#FFFFFF;}
</style>
<g id="Graphie_bold">
</g>
<g id="Layer_2">
	<g>
		<path class="st0" d="M222.76,219.54L107.45,624.86c-3.85,13.54,6.25,27.03,20.24,27.03h482.98c14.45,0,24.61-14.31,19.92-28.07
			L492.53,218.5c-2.92-8.57-10.92-14.32-19.92-14.32H243C233.61,204.18,225.35,210.45,222.76,219.54z"/>
		<path class="st1" d="M245.46,248.35l104.31,363.38c3.28,11.42,13.77,19.3,25.7,19.3h215.75c15.56,0,22.63-13.02,18.32-25.53
			l-127-368.7c-2.68-7.79-10.05-13.03-18.32-13.03H264.08C251.21,223.77,241.92,236.04,245.46,248.35z"/>
		<path class="st0" d="M376.57,395.09L376.57,395.09c-5.26,0-9.53-4.27-9.53-9.53v-69.9c0-5.26,4.27-9.53,9.53-9.53l0,0
			c5.26,0,9.53,4.27,9.53,9.53v69.9C386.1,390.82,381.83,395.09,376.57,395.09z"/>
		<path class="st0" d="M449.7,395.09L449.7,395.09c-5.26,0-9.53-4.27-9.53-9.53v-69.9c0-5.26,4.27-9.53,9.53-9.53h0
			c5.26,0,9.53,4.27,9.53,9.53v69.9C459.23,390.82,454.96,395.09,449.7,395.09z"/>
		<g>
			<line class="st0" x1="292.92" y1="493.1" x2="574.35" y2="493.1"/>
			<rect x="292.92" y="488.32" class="st0" width="281.43" height="9.56"/>
		</g>
		<circle class="st0" cx="469.8" cy="593.74" r="8.09"/>
		<circle class="st0" cx="499.38" cy="593.74" r="8.09"/>
		<path class="st0" d="M321.34,205.23l64.9-133.8c3.56-7.35,14.62-4.74,14.52,3.43l-1.56,130.38H321.34z"/>
	</g>
</g>
</svg>
