<?xml version="1.0" encoding="utf-8"?>
<!-- Generator: Adobe Illustrator 28.0.0, SVG Export Plug-In . SVG Version: 6.00 Build 0)  -->
<svg version="1.1" xmlns="http://www.w3.org/2000/svg" xmlns:xlink="http://www.w3.org/1999/xlink" x="0px" y="0px"
	 viewBox="0 0 3532.44 724.33" style="enable-background:new 0 0 3532.44 724.33;" xml:space="preserve">
<style type="text/css">
	.st0{fill:#F27237;}
	.st1{fill:#FFFFFF;}
</style>
<g id="Graphie_bold">
	<g>
		<g>
			<path class="st0" d="M799.43,638.71h-89.1V241.36h89.1v166.96l146.9-166.96h112.58L880.1,436.45l184.83,202.26h-117.4
				l-148.1-168.75V638.71z"/>
			<path class="st0" d="M1286.48,638.71l-3.01-40.09h-1.21c-16.86,29.32-46.96,46.08-87.9,46.08
				c-69.23,0-110.17-44.88-110.17-120.88V357.45h78.87v157.38c0,38.9,19.26,60.44,52.38,60.44c36.12,0,57.8-24.53,57.8-68.22v-149.6
				h78.87v281.25H1286.48z"/>
			<path class="st0" d="M1624.82,638.71l-2.41-37.7h-1.2c-18.66,27.53-49.97,43.68-92.11,43.68c-80.07,0-138.47-61.64-138.47-146.61
				c0-84.98,58.4-146.61,138.47-146.61c34.92,0,62.01,10.77,81.27,29.92h1.21V219.82h78.87v418.89H1624.82z M1613.99,498.08
				c0-45.48-29.5-77.2-71.64-77.2c-42.75,0-72.25,31.72-72.25,77.2s29.5,77.19,72.25,77.19
				C1584.49,575.28,1613.99,543.56,1613.99,498.08z"/>
			<path class="st0" d="M1963.17,638.71l-2.41-37.7h-1.21c-18.66,27.53-49.97,43.68-92.11,43.68
				c-80.07,0-138.47-61.64-138.47-146.61c0-84.98,58.4-146.61,138.47-146.61c41.54,0,73.45,15.56,91.51,42.49h1.2l3.01-36.5h65.62
				v281.25H1963.17z M1952.33,498.08c0-45.48-29.5-77.2-71.64-77.2c-42.75,0-72.25,31.72-72.25,77.2s29.5,77.19,72.25,77.19
				C1922.83,575.28,1952.33,543.56,1952.33,498.08z"/>
			<path class="st0" d="M2278.03,369.42v74.8h-3.01c-18.66-18.55-47.56-28.13-84.29-28.13c-30.71,0-45.75,8.98-45.75,26.33
				c0,12.57,9.63,17.95,46.96,20.34c75.26,4.79,104.76,31.12,104.76,90.36c0,57.45-43.35,91.56-116.19,91.56
				c-46.96,0-83.08-8.38-107.17-25.13v-75.4h3.61c22.28,23.94,55.99,35.9,99.94,35.9c30.71,0,45.76-8.98,45.76-26.93
				c0-14.96-12.04-20.94-51.78-24.53c-71.64-6.58-99.94-28.13-99.94-83.78c0-56.85,46.36-93.35,118-93.35
				C2223.24,351.47,2255.76,358.05,2278.03,369.42z"/>
			<path class="st0" d="M2550.15,638.71l-2.41-37.7h-1.21c-18.66,27.53-49.97,43.68-92.11,43.68
				c-80.07,0-138.47-61.64-138.47-146.61c0-84.98,58.4-146.61,138.47-146.61c41.54,0,73.45,15.56,91.51,42.49h1.2l3.01-36.5h65.62
				v281.25H2550.15z M2539.31,498.08c0-45.48-29.5-77.2-71.64-77.2c-42.75,0-72.25,31.72-72.25,77.2s29.5,77.19,72.25,77.19
				C2509.81,575.28,2539.31,543.56,2539.31,498.08z"/>
			<path class="st0" d="M2759.05,270.09c0,28.72-20.47,48.47-48.76,48.47c-28.3,0-48.77-19.75-48.77-48.47
				c0-28.13,20.47-47.87,48.77-47.87C2738.58,222.21,2759.05,241.96,2759.05,270.09z M2670.55,357.45h78.87v281.25h-78.87V357.45z"
				/>
			<path class="st0" d="M3278.13,241.36c99.94,0,151.11,44.88,151.11,132.25c0,86.77-51.17,131.65-151.11,131.65h-87.3v133.45h-89.1
				V241.36H3278.13z M3273.92,426.27c44.55,0,65.02-16.76,65.02-52.66c0-36.5-20.47-53.26-65.02-53.26h-83.08v105.92H3273.92z"/>
		</g>
		<path class="st0" d="M3040.33,241.36L3040.33,241.36h-89.1h-93.82v78.69h93.82v166.66c0,55.05-24.08,78.99-71.04,78.99
			c-18.29,0-36.73-4.32-53.04-11.96l-30.37,69.32c26.05,14.18,57.14,21.63,93.65,21.63c99.34,0,149.91-50.27,149.91-149.01V320.06
			l0,0V241.36z"/>
	</g>
</g>
<g id="Layer_2">
	<g>
		<path class="st0" d="M218.78,224.02L103.47,629.34c-3.85,13.54,6.25,27.03,20.24,27.03h482.98c14.45,0,24.61-14.31,19.92-28.07
			L488.55,222.98c-2.92-8.57-10.92-14.32-19.92-14.32H239.02C229.63,208.66,221.37,214.93,218.78,224.02z"/>
		<path class="st1" d="M241.48,252.83l104.31,363.38c3.28,11.42,13.77,19.3,25.7,19.3h215.75c15.56,0,22.63-13.02,18.32-25.53
			l-127-368.7c-2.68-7.79-10.05-13.03-18.32-13.03H260.1C247.23,228.25,237.94,240.51,241.48,252.83z"/>
		<path class="st0" d="M372.59,399.57L372.59,399.57c-5.26,0-9.53-4.27-9.53-9.53v-69.9c0-5.26,4.27-9.53,9.53-9.53l0,0
			c5.26,0,9.53,4.27,9.53,9.53v69.9C382.12,395.3,377.85,399.57,372.59,399.57z"/>
		<path class="st0" d="M445.72,399.57L445.72,399.57c-5.26,0-9.53-4.27-9.53-9.53v-69.9c0-5.26,4.27-9.53,9.53-9.53h0
			c5.26,0,9.53,4.27,9.53,9.53v69.9C455.25,395.3,450.98,399.57,445.72,399.57z"/>
		<g>
			<line class="st0" x1="288.94" y1="497.58" x2="570.37" y2="497.58"/>
			<rect x="288.94" y="492.8" class="st0" width="281.43" height="9.56"/>
		</g>
		<circle class="st0" cx="465.82" cy="598.22" r="8.09"/>
		<circle class="st0" cx="495.4" cy="598.22" r="8.09"/>
		<path class="st0" d="M317.37,209.71l64.9-133.8c3.56-7.35,14.62-4.74,14.52,3.43l-1.56,130.38H317.37z"/>
	</g>
</g>
</svg>
